<svg width="300" height="218" viewBox="0 0 300 218" fill="none" xmlns="http://www.w3.org/2000/svg">
    <path d="M38.0913 23.7856C100.703 -26.7802 194.637 10.4596 240.345 68.4014C264.354 98.8366 292.288 118.839 290.954 157.04C289.201 207.246 222.982 145.474 172.225 157.04C83.1084 177.348 92.5579 224.742 62.485 213.219C-1.13835 188.84 86.8046 118.676 21.4179 103.905C-1.21925 98.7912 -18.6155 69.5826 38.0913 23.7856Z" fill="#92D0FF" />
    <path d="M249.136 56.8004V180.533C249.137 181.765 248.895 182.985 248.424 184.124C247.954 185.262 247.263 186.297 246.392 187.168C245.522 188.04 244.488 188.731 243.35 189.203C242.212 189.674 240.992 189.917 239.76 189.917H38.5067C37.2748 189.917 36.0549 189.674 34.9169 189.203C33.7788 188.731 32.7449 188.04 31.8742 187.168C31.0034 186.297 30.313 185.262 29.8423 184.124C29.3716 182.985 29.1299 181.765 29.131 180.533V56.8004C29.131 54.313 30.1185 51.9274 31.8766 50.1678C33.6346 48.4082 36.0194 47.4185 38.5067 47.4163H239.76C242.247 47.4185 244.632 48.4082 246.39 50.1678C248.148 51.9274 249.136 54.313 249.136 56.8004Z" fill="white" />
    <path d="M239.76 190.342H38.5067C35.909 190.34 33.4183 189.306 31.5822 187.468C29.7461 185.631 28.7147 183.139 28.7147 180.541V56.8004C28.7147 54.2026 29.7461 51.7111 31.5822 49.8734C33.4183 48.0357 35.909 47.0022 38.5067 47H239.76C242.358 47.0022 244.848 48.0357 246.684 49.8734C248.52 51.7111 249.552 54.2026 249.552 56.8004V180.533C249.553 181.82 249.301 183.095 248.809 184.284C248.318 185.474 247.597 186.555 246.687 187.465C245.778 188.376 244.698 189.099 243.51 189.593C242.321 190.086 241.047 190.341 239.76 190.342ZM38.5067 47.8327C36.1305 47.8371 33.8529 48.7836 32.1734 50.4646C30.4939 52.1457 29.5495 54.4241 29.5473 56.8004V180.533C29.5473 182.911 30.4907 185.191 32.1705 186.874C33.8502 188.557 36.129 189.505 38.5067 189.509H239.76C242.136 189.505 244.414 188.558 246.093 186.877C247.773 185.196 248.717 182.918 248.719 180.541V56.8004C248.717 54.4241 247.773 52.1457 246.093 50.4646C244.414 48.7836 242.136 47.8371 239.76 47.8327H38.5067Z" fill="#0C2232" />
    <path d="M249 56.9167V64H29V56.9167C29 54.2881 29.9875 51.7671 31.7455 49.9076C33.5035 48.0482 35.8882 47.0023 38.3755 47H239.624C242.112 47.0023 244.496 48.0482 246.254 49.9076C248.012 51.7671 249 54.2881 249 56.9167Z" fill="#0C2232" />
    <path d="M249.136 63.8696H29.1311C29.0339 63.8696 28.9407 63.8311 28.872 63.7623C28.8033 63.6936 28.7647 63.6004 28.7647 63.5033V56.8004C28.7669 54.2165 29.7938 51.739 31.62 49.9112C33.4463 48.0834 35.9229 47.0544 38.5068 47.05H239.76C242.344 47.0544 244.82 48.0834 246.647 49.9112C248.473 51.739 249.5 54.2165 249.502 56.8004V63.5033C249.502 63.6004 249.463 63.6936 249.395 63.7623C249.326 63.8311 249.233 63.8696 249.136 63.8696ZM29.4975 63.1369H248.769V56.8004C248.767 54.4109 247.817 52.1197 246.129 50.4293C244.44 48.7389 242.149 47.7871 239.76 47.7827H38.5068C36.1173 47.7871 33.827 48.7389 32.1382 50.4293C30.4493 52.1197 29.4997 54.4109 29.4975 56.8004V63.1369Z" fill="#0C2232" />
    <path d="M118.559 64L96.8676 64L68.3682 64H59.358H29V83H249V64H118.559Z" fill="#FFBC6F" />
    <path d="M249.136 83.6369H29.131C29.0206 83.6369 28.9147 83.5931 28.8366 83.515C28.7586 83.4369 28.7147 83.331 28.7147 83.2206V63.5033C28.7147 63.3929 28.7586 63.287 28.8366 63.2089C28.9147 63.1309 29.0206 63.087 29.131 63.087H59.2732L68.0411 50.339C68.0783 50.2826 68.129 50.2363 68.1886 50.2043C68.2482 50.1723 68.3148 50.1557 68.3825 50.1558H110.748C110.82 50.1554 110.891 50.1736 110.953 50.2086C111.016 50.2436 111.069 50.2943 111.106 50.3557L118.925 63.087H249.136C249.246 63.087 249.352 63.1309 249.43 63.2089C249.508 63.287 249.552 63.3929 249.552 63.5033V83.2206C249.552 83.331 249.508 83.4369 249.43 83.515C249.352 83.5931 249.246 83.6369 249.136 83.6369ZM29.5473 82.8043H248.719V63.9196H118.692C118.62 63.9185 118.55 63.8997 118.487 63.8648C118.425 63.8299 118.372 63.7801 118.334 63.7198L110.515 50.9885H68.5989L59.8311 63.7781C59.7938 63.8345 59.7431 63.8808 59.6835 63.9128C59.6239 63.9448 59.5573 63.9614 59.4897 63.9613H29.514L29.5473 82.8043Z" fill="#0C2232" />
    <path d="M39.3142 57.708C40.5558 57.708 41.5624 56.7014 41.5624 55.4598C41.5624 54.2181 40.5558 53.2116 39.3142 53.2116C38.0726 53.2116 37.066 54.2181 37.066 55.4598C37.066 56.7014 38.0726 57.708 39.3142 57.708Z" fill="#FFBC6F" />
    <path d="M46.8748 57.708C48.1164 57.708 49.123 56.7014 49.123 55.4598C49.123 54.2181 48.1164 53.2116 46.8748 53.2116C45.6332 53.2116 44.6266 54.2181 44.6266 55.4598C44.6266 56.7014 45.6332 57.708 46.8748 57.708Z" fill="white" />
    <path d="M54.4354 57.708C55.677 57.708 56.6836 56.7014 56.6836 55.4598C56.6836 54.2181 55.677 53.2116 54.4354 53.2116C53.1938 53.2116 52.1872 54.2181 52.1872 55.4598C52.1872 56.7014 53.1938 57.708 54.4354 57.708Z" fill="white" />
    <path d="M226.021 68.1412H63.3948C60.654 68.1412 58.4321 70.363 58.4321 73.1038V73.8782C58.4321 76.619 60.654 78.8408 63.3948 78.8408H226.021C228.762 78.8408 230.984 76.619 230.984 73.8782V73.1038C230.984 70.363 228.762 68.1412 226.021 68.1412Z" fill="white" />
    <path d="M223.232 75.8932C223.143 75.894 223.056 75.8678 222.982 75.8183C222.919 75.772 222.871 75.7095 222.842 75.6376C222.812 75.5656 222.803 75.487 222.815 75.4103L223.123 73.6201L221.824 72.3461C221.768 72.2929 221.728 72.2247 221.709 72.1495C221.689 72.0743 221.692 71.9952 221.716 71.9214C221.742 71.8474 221.787 71.7817 221.847 71.7318C221.907 71.6818 221.98 71.6495 222.058 71.6383L223.856 71.3802L224.689 69.7149C224.724 69.6454 224.777 69.5869 224.843 69.5458C224.91 69.5047 224.986 69.4825 225.064 69.4818C225.141 69.4825 225.217 69.5047 225.284 69.5458C225.35 69.5869 225.403 69.6454 225.438 69.7149L226.271 71.3802L228.069 71.6383C228.147 71.6495 228.22 71.6818 228.28 71.7318C228.34 71.7817 228.386 71.8474 228.411 71.9214C228.435 71.9952 228.438 72.0743 228.419 72.1495C228.399 72.2247 228.359 72.2929 228.303 72.3461L227.004 73.6201L227.312 75.4103C227.324 75.487 227.315 75.5656 227.285 75.6376C227.256 75.7095 227.208 75.772 227.145 75.8183C227.078 75.857 227.002 75.8774 226.925 75.8774C226.847 75.8774 226.771 75.857 226.704 75.8183L225.097 74.9856L223.49 75.8183C223.412 75.8668 223.323 75.8927 223.232 75.8932ZM223.007 72.3378L223.84 73.1704C223.888 73.2185 223.924 73.2778 223.945 73.3432C223.965 73.4085 223.969 73.4779 223.956 73.5451L223.756 74.7192L224.814 74.1613C224.873 74.1325 224.939 74.1176 225.005 74.1176C225.072 74.1176 225.137 74.1325 225.197 74.1613L226.254 74.7192L226.054 73.5451C226.042 73.4779 226.045 73.4085 226.066 73.3432C226.086 73.2778 226.122 73.2185 226.171 73.1704L227.004 72.3378L225.821 72.1712C225.754 72.1589 225.691 72.1315 225.636 72.0911C225.581 72.0507 225.536 71.9984 225.505 71.9381L224.98 70.8723L224.456 71.9381C224.424 71.9984 224.379 72.0507 224.324 72.0911C224.269 72.1315 224.206 72.1589 224.139 72.1712L223.007 72.3378Z" fill="#D1D3D4" />
    <path d="M243.981 70.3477H237.736C237.626 70.3477 237.52 70.3039 237.442 70.2258C237.364 70.1477 237.32 70.0418 237.32 69.9314C237.32 69.821 237.364 69.7151 237.442 69.637C237.52 69.5589 237.626 69.5151 237.736 69.5151H243.981C244.092 69.5151 244.198 69.5589 244.276 69.637C244.354 69.7151 244.398 69.821 244.398 69.9314C244.398 70.0418 244.354 70.1477 244.276 70.2258C244.198 70.3039 244.092 70.3477 243.981 70.3477Z" fill="#0C2232" />
    <path d="M243.981 73.1204H237.736C237.626 73.1204 237.52 73.0766 237.442 72.9985C237.364 72.9204 237.32 72.8145 237.32 72.7041C237.322 72.5944 237.367 72.4897 237.444 72.4121C237.522 72.3345 237.627 72.2899 237.736 72.2878H243.981C244.092 72.2878 244.198 72.3316 244.276 72.4097C244.354 72.4878 244.398 72.5937 244.398 72.7041C244.398 72.8145 244.354 72.9204 244.276 72.9985C244.198 73.0766 244.092 73.1204 243.981 73.1204Z" fill="#0C2232" />
    <path d="M243.981 75.8931H237.736C237.626 75.8931 237.52 75.8493 237.442 75.7712C237.364 75.6931 237.32 75.5872 237.32 75.4768C237.322 75.3671 237.367 75.2624 237.444 75.1848C237.522 75.1072 237.627 75.0626 237.736 75.0605H243.981C244.092 75.0605 244.198 75.1043 244.276 75.1824C244.354 75.2605 244.398 75.3664 244.398 75.4768C244.398 75.5872 244.354 75.6931 244.276 75.7712C244.198 75.8493 244.092 75.8931 243.981 75.8931Z" fill="#0C2232" />
    <path d="M40.5302 74.5443H34.61C34.4995 74.5443 34.3937 74.5004 34.3156 74.4223C34.2375 74.3442 34.1936 74.2384 34.1936 74.1279C34.1936 74.0175 34.2375 73.9116 34.3156 73.8335C34.3937 73.7555 34.4995 73.7116 34.61 73.7116H40.5302C40.6399 73.7137 40.7446 73.7583 40.8222 73.8359C40.8998 73.9135 40.9443 74.0182 40.9465 74.1279C40.9465 74.2384 40.9026 74.3442 40.8245 74.4223C40.7465 74.5004 40.6406 74.5443 40.5302 74.5443Z" fill="#0C2232" />
    <path d="M36.2003 77.3253C36.1378 77.3244 36.0764 77.3098 36.0202 77.2824C35.9641 77.2551 35.9147 77.2157 35.8755 77.1671L33.6273 74.3943C33.565 74.3195 33.5309 74.2252 33.5309 74.1279C33.5309 74.0305 33.565 73.9362 33.6273 73.8614L36.0587 71.0221C36.1305 70.9382 36.2326 70.8862 36.3427 70.8776C36.3972 70.8734 36.4521 70.8799 36.504 70.8968C36.556 70.9137 36.6042 70.9407 36.6457 70.9763C36.6873 71.0118 36.7214 71.0552 36.7462 71.1039C36.771 71.1527 36.7859 71.2058 36.7902 71.2603C36.7945 71.3148 36.7879 71.3696 36.771 71.4216C36.7541 71.4736 36.7271 71.5218 36.6915 71.5633L34.485 74.1362L36.5167 76.6342C36.5514 76.6765 36.5774 76.7253 36.5929 76.7778C36.6084 76.8303 36.6132 76.8854 36.607 76.9397C36.6007 76.9941 36.5837 77.0467 36.5567 77.0943C36.5297 77.142 36.4935 77.1837 36.4501 77.217C36.3824 77.2819 36.2938 77.3203 36.2003 77.3253Z" fill="#0C2232" />
    <path d="M49.6808 74.5443H43.7606C43.6502 74.5443 43.5443 74.5004 43.4662 74.4223C43.3882 74.3442 43.3443 74.2384 43.3443 74.1279C43.3443 74.0175 43.3882 73.9116 43.4662 73.8335C43.5443 73.7555 43.6502 73.7116 43.7606 73.7116H49.6808C49.7906 73.7137 49.8952 73.7583 49.9728 73.8359C50.0505 73.9135 50.095 74.0182 50.0971 74.1279C50.0971 74.2384 50.0533 74.3442 49.9752 74.4223C49.8971 74.5004 49.7912 74.5443 49.6808 74.5443Z" fill="#0C2232" />
    <path d="M48.0906 77.3253C47.993 77.3236 47.8989 77.2883 47.8242 77.2254C47.7396 77.1555 47.6861 77.0551 47.6752 76.9459C47.6643 76.8368 47.6969 76.7278 47.7659 76.6425L49.7976 74.1446L47.591 71.5716C47.5523 71.5337 47.5215 71.4883 47.5004 71.4383C47.4794 71.3882 47.4686 71.3345 47.4686 71.2802C47.4686 71.2259 47.4794 71.1722 47.5004 71.1222C47.5215 71.0721 47.5523 71.0268 47.591 70.9888C47.6703 70.912 47.7763 70.869 47.8866 70.869C47.997 70.869 48.103 70.912 48.1822 70.9888L50.6136 73.8281C50.6744 73.9036 50.7076 73.9977 50.7076 74.0946C50.7076 74.1915 50.6744 74.2856 50.6136 74.361L48.3654 77.1338C48.3346 77.1824 48.2945 77.2243 48.2473 77.2572C48.2001 77.2901 48.1468 77.3132 48.0906 77.3253Z" fill="#0C2232" />
    <path d="M198.248 130H79.7517C79.5535 129.995 79.3646 129.888 79.2244 129.701C79.0843 129.515 79.0038 129.264 79 129C79 128.735 79.0792 128.48 79.2202 128.293C79.3611 128.105 79.5523 128 79.7517 128H198.248C198.448 128 198.639 128.105 198.78 128.293C198.921 128.48 199 128.735 199 129C199 129.265 198.921 129.52 198.78 129.707C198.639 129.895 198.448 130 198.248 130Z" fill="#D1D3D4" />
    <path d="M198.248 138H79.7517C79.5535 137.995 79.3646 137.888 79.2244 137.701C79.0843 137.515 79.0038 137.264 79 137C79 136.735 79.0792 136.48 79.2202 136.293C79.3611 136.105 79.5523 136 79.7517 136H198.248C198.448 136 198.639 136.105 198.78 136.293C198.921 136.48 199 136.735 199 137C199 137.265 198.921 137.52 198.78 137.707C198.639 137.895 198.448 138 198.248 138Z" fill="#D1D3D4" />
    <path d="M188.374 146H89.6264C89.4613 145.995 89.3038 145.888 89.187 145.701C89.0702 145.515 89.0032 145.264 89 145C89 144.735 89.066 144.48 89.1835 144.293C89.3009 144.105 89.4603 144 89.6264 144H188.374C188.54 144 188.699 144.105 188.817 144.293C188.934 144.48 189 144.735 189 145C189 145.265 188.934 145.52 188.817 145.707C188.699 145.895 188.54 146 188.374 146Z" fill="#D1D3D4" />
    <path d="M230.44 92.0312H223.686V104.638H232.691V94.2824L230.44 92.0312Z" fill="#3DA9FC" />
    <path d="M232.241 91.1308H225.487V103.737H234.492V93.382L232.241 91.1308Z" fill="#77C2FB" />
    <path d="M232.241 93.382V91.1308L233.592 92.4815L234.492 93.382H232.241Z" fill="#3EA8F9" />
    <path d="M226.388 94.3231C226.162 94.3231 225.978 94.5065 225.978 94.7327C225.978 94.959 226.162 95.1424 226.388 95.1424V94.3231ZM230.89 95.1424C231.117 95.1424 231.3 94.959 231.3 94.7327C231.3 94.5065 231.117 94.3231 230.89 94.3231V95.1424ZM226.388 95.1424H230.89V94.3231H226.388V95.1424Z" fill="#FFFFFE" />
    <path d="M226.388 96.124C226.161 96.124 225.978 96.3075 225.978 96.5337C225.978 96.7599 226.161 96.9433 226.388 96.9433V96.124ZM232.691 96.9433C232.917 96.9433 233.101 96.7599 233.101 96.5337C233.101 96.3075 232.917 96.124 232.691 96.124V96.9433ZM226.388 96.9433H232.691V96.124H226.388V96.9433Z" fill="#FFFFFE" />
    <path d="M226.388 97.925C226.161 97.925 225.978 98.1084 225.978 98.3347C225.978 98.5609 226.161 98.7443 226.388 98.7443V97.925ZM232.691 98.7443C232.917 98.7443 233.101 98.5609 233.101 98.3347C233.101 98.1084 232.917 97.925 232.691 97.925V98.7443ZM226.388 98.7443H232.691V97.925H226.388V98.7443Z" fill="#FFFFFE" />
    <path d="M226.388 99.726C226.161 99.726 225.978 99.9094 225.978 100.136C225.978 100.362 226.161 100.545 226.388 100.545V99.726ZM232.691 100.545C232.917 100.545 233.101 100.362 233.101 100.136C233.101 99.9094 232.917 99.726 232.691 99.726V100.545ZM226.388 100.545H232.691V99.726H226.388V100.545Z" fill="#FFFFFE" />
    <path d="M226.388 101.527C226.161 101.527 225.978 101.71 225.978 101.937C225.978 102.163 226.161 102.346 226.388 102.346V101.527ZM229.089 102.346C229.315 102.346 229.499 102.163 229.499 101.937C229.499 101.71 229.315 101.527 229.089 101.527V102.346ZM226.388 102.346H229.089V101.527H226.388V102.346Z" fill="#FFFFFE" />
    <circle cx="249" cy="179" r="38.5" fill="white" stroke="#0C2232" />
    <path d="M252.25 164.452H236V194.785H257.666V169.869L252.25 164.452Z" fill="#3DA9FC" />
    <path d="M256.583 162.286H240.333V192.619H262V167.702L256.583 162.286Z" fill="#77C2FB" />
    <path d="M256.583 167.702V162.286L259.833 165.536L262 167.702H256.583Z" fill="#3EA8F9" />
    <path d="M242.5 169.967C241.956 169.967 241.515 170.408 241.515 170.952C241.515 171.497 241.956 171.938 242.5 171.938V169.967ZM253.334 171.938C253.878 171.938 254.319 171.497 254.319 170.952C254.319 170.408 253.878 169.967 253.334 169.967V171.938ZM242.5 171.938H253.334V169.967H242.5V171.938Z" fill="#FFFFFE" />
    <path d="M242.5 174.3C241.956 174.3 241.514 174.741 241.514 175.286C241.514 175.83 241.956 176.271 242.5 176.271V174.3ZM257.666 176.271C258.211 176.271 258.652 175.83 258.652 175.286C258.652 174.741 258.211 174.3 257.666 174.3V176.271ZM242.5 176.271H257.666V174.3H242.5V176.271Z" fill="#FFFFFE" />
    <path d="M242.5 178.633C241.956 178.633 241.514 179.075 241.514 179.619C241.514 180.163 241.956 180.605 242.5 180.605V178.633ZM257.666 180.605C258.211 180.605 258.652 180.163 258.652 179.619C258.652 179.075 258.211 178.633 257.666 178.633V180.605ZM242.5 180.605H257.666V178.633H242.5V180.605Z" fill="#FFFFFE" />
    <path d="M242.5 182.967C241.956 182.967 241.514 183.408 241.514 183.952C241.514 184.497 241.956 184.938 242.5 184.938V182.967ZM257.666 184.938C258.211 184.938 258.652 184.497 258.652 183.952C258.652 183.408 258.211 182.967 257.666 182.967V184.938ZM242.5 184.938H257.666V182.967H242.5V184.938Z" fill="#FFFFFE" />
    <path d="M242.5 187.3C241.956 187.3 241.514 187.741 241.514 188.286C241.514 188.83 241.956 189.271 242.5 189.271V187.3ZM249 189.271C249.544 189.271 249.985 188.83 249.985 188.286C249.985 187.741 249.544 187.3 249 187.3V189.271ZM242.5 189.271H249V187.3H242.5V189.271Z" fill="#FFFFFE" />
    <path d="M45.2391 98.3619C44.8754 98.3619 44.5447 98.2793 44.2471 98.1139C43.9542 97.9486 43.7227 97.7148 43.5527 97.4124C43.3874 97.1054 43.3047 96.7511 43.3047 96.3496C43.3047 95.9528 43.3897 95.6032 43.5598 95.3009C43.7346 94.9938 43.9707 94.76 44.2683 94.5994C44.5659 94.4341 44.899 94.3514 45.2674 94.3514C45.6359 94.3514 45.9689 94.4341 46.2665 94.5994C46.5641 94.76 46.798 94.9915 46.968 95.2938C47.1428 95.5961 47.2302 95.9481 47.2302 96.3496C47.2302 96.7511 47.1404 97.1054 46.9609 97.4124C46.7861 97.7148 46.5476 97.9486 46.2453 98.1139C45.9429 98.2793 45.6075 98.3619 45.2391 98.3619ZM45.2391 97.7951C45.4706 97.7951 45.6879 97.7407 45.891 97.6321C46.0941 97.5235 46.2571 97.3605 46.3799 97.1432C46.5074 96.9259 46.5712 96.6614 46.5712 96.3496C46.5712 96.0378 46.5098 95.7733 46.387 95.556C46.2642 95.3387 46.1035 95.1781 45.9051 95.0742C45.7067 94.9655 45.4918 94.9112 45.2603 94.9112C45.0242 94.9112 44.8069 94.9655 44.6085 95.0742C44.4148 95.1781 44.2589 95.3387 44.1408 95.556C44.0227 95.7733 43.9637 96.0378 43.9637 96.3496C43.9637 96.6661 44.0203 96.933 44.1337 97.1503C44.2518 97.3676 44.4077 97.5305 44.6014 97.6392C44.7951 97.7431 45.0076 97.7951 45.2391 97.7951ZM48.7228 95.1308C48.8503 94.9088 49.0393 94.7246 49.2896 94.5781C49.5447 94.427 49.84 94.3514 50.1754 94.3514C50.5202 94.3514 50.832 94.4341 51.1107 94.5994C51.3941 94.7647 51.6161 94.9986 51.7767 95.3009C51.9373 95.5985 52.0176 95.9457 52.0176 96.3425C52.0176 96.7346 51.9373 97.0841 51.7767 97.3912C51.6161 97.6982 51.3941 97.9368 51.1107 98.1068C50.832 98.2769 50.5202 98.3619 50.1754 98.3619C49.8447 98.3619 49.5518 98.2887 49.2967 98.1423C49.0464 97.9911 48.855 97.8045 48.7228 97.5825V100.14H48.078V94.4152H48.7228V95.1308ZM51.3587 96.3425C51.3587 96.0496 51.2996 95.7945 51.1815 95.5772C51.0634 95.3599 50.9028 95.1946 50.6997 95.0812C50.5013 94.9679 50.2816 94.9112 50.0407 94.9112C49.8045 94.9112 49.5849 94.9702 49.3817 95.0883C49.1833 95.2017 49.0227 95.3694 48.8999 95.5914C48.7818 95.8087 48.7228 96.0614 48.7228 96.3496C48.7228 96.6425 48.7818 96.8999 48.8999 97.1219C49.0227 97.3392 49.1833 97.5069 49.3817 97.625C49.5849 97.7384 49.8045 97.7951 50.0407 97.7951C50.2816 97.7951 50.5013 97.7384 50.6997 97.625C50.9028 97.5069 51.0634 97.3392 51.1815 97.1219C51.2996 96.8999 51.3587 96.6401 51.3587 96.3425ZM56.4092 96.2079C56.4092 96.3307 56.4022 96.4606 56.388 96.5976H53.2844C53.3081 96.9802 53.438 97.2802 53.6741 97.4975C53.9151 97.71 54.2056 97.8163 54.5457 97.8163C54.8244 97.8163 55.0559 97.7526 55.2401 97.625C55.429 97.4927 55.5613 97.318 55.6369 97.1007H56.3313C56.2274 97.4739 56.0195 97.7785 55.7078 98.0147C55.396 98.2462 55.0086 98.3619 54.5457 98.3619C54.1772 98.3619 53.8466 98.2793 53.5537 98.1139C53.2655 97.9486 53.0388 97.7148 52.8735 97.4124C52.7081 97.1054 52.6255 96.7511 52.6255 96.3496C52.6255 95.9481 52.7058 95.5961 52.8664 95.2938C53.027 94.9915 53.2514 94.76 53.5395 94.5994C53.8324 94.4341 54.1678 94.3514 54.5457 94.3514C54.9142 94.3514 55.2401 94.4317 55.5235 94.5923C55.807 94.7529 56.0242 94.975 56.1754 95.2584C56.3313 95.5371 56.4092 95.8536 56.4092 96.2079ZM55.7432 96.0732C55.7432 95.8276 55.6889 95.6174 55.5802 95.4426C55.4716 95.2631 55.3228 95.1285 55.1338 95.0387C54.9496 94.9442 54.7441 94.897 54.5174 94.897C54.1914 94.897 53.9127 95.0009 53.6812 95.2088C53.4545 95.4166 53.3246 95.7048 53.2915 96.0732H55.7432ZM59.1522 94.3443C59.6246 94.3443 60.0073 94.4884 60.3001 94.7766C60.593 95.06 60.7395 95.471 60.7395 96.0095V98.2982H60.1017V96.1016C60.1017 95.7142 60.0049 95.419 59.8112 95.2159C59.6175 95.008 59.353 94.9041 59.0176 94.9041C58.6775 94.9041 58.4059 95.0104 58.2028 95.223C58.0044 95.4355 57.9052 95.7449 57.9052 96.1512V98.2982H57.2604V94.4152H57.9052V94.9679C58.0327 94.7695 58.2051 94.6159 58.4224 94.5073C58.6444 94.3986 58.8877 94.3443 59.1522 94.3443Z" fill="#3DA9FC" />
    <path d="M43.263 102.404C43.263 101.947 43.356 101.549 43.542 101.209C43.728 100.863 43.9858 100.598 44.3153 100.412C44.6447 100.22 45.0221 100.125 45.4472 100.125C45.9946 100.125 46.4463 100.263 46.8023 100.539C47.1637 100.81 47.4055 101.193 47.5277 101.687H46.3241C46.2603 101.496 46.1513 101.347 45.9972 101.241C45.8484 101.129 45.6624 101.073 45.4392 101.073C45.1204 101.073 44.8679 101.19 44.6819 101.424C44.4959 101.652 44.4029 101.979 44.4029 102.404C44.4029 102.824 44.4959 103.151 44.6819 103.385C44.8679 103.613 45.1204 103.728 45.4392 103.728C45.8909 103.728 46.1859 103.526 46.3241 103.122H47.5277C47.4055 103.6 47.1637 103.98 46.8023 104.262C46.441 104.543 45.9893 104.684 45.4472 104.684C45.0221 104.684 44.6447 104.591 44.3153 104.405C43.9858 104.214 43.728 103.948 43.542 103.608C43.356 103.263 43.263 102.861 43.263 102.404ZM50.3063 104.684C49.8812 104.684 49.4985 104.591 49.1584 104.405C48.8183 104.214 48.5499 103.946 48.3533 103.6C48.162 103.255 48.0663 102.856 48.0663 102.404C48.0663 101.953 48.1646 101.554 48.3613 101.209C48.5632 100.863 48.8369 100.598 49.1823 100.412C49.5278 100.22 49.913 100.125 50.3382 100.125C50.7633 100.125 51.1486 100.22 51.494 100.412C51.8395 100.598 52.1105 100.863 52.3071 101.209C52.5091 101.554 52.61 101.953 52.61 102.404C52.61 102.856 52.5064 103.255 52.2992 103.6C52.0972 103.946 51.8209 104.214 51.4701 104.405C51.1247 104.591 50.7368 104.684 50.3063 104.684ZM50.3063 103.712C50.5082 103.712 50.6969 103.664 50.8723 103.568C51.053 103.467 51.1964 103.318 51.3027 103.122C51.409 102.925 51.4622 102.686 51.4622 102.404C51.4622 101.985 51.3506 101.663 51.1274 101.44C50.9095 101.211 50.6411 101.097 50.3222 101.097C50.0034 101.097 49.735 101.211 49.5171 101.44C49.3046 101.663 49.1983 101.985 49.1983 102.404C49.1983 102.824 49.3019 103.148 49.5092 103.377C49.7217 103.6 49.9874 103.712 50.3063 103.712ZM55.8759 100.133C56.402 100.133 56.8272 100.3 57.1513 100.635C57.4755 100.964 57.6376 101.427 57.6376 102.022V104.612H56.5216V102.173C56.5216 101.822 56.4339 101.554 56.2585 101.368C56.0832 101.177 55.844 101.081 55.5411 101.081C55.2329 101.081 54.9884 101.177 54.8077 101.368C54.6324 101.554 54.5447 101.822 54.5447 102.173V104.612H53.4287V100.196H54.5447V100.746C54.6935 100.555 54.8821 100.406 55.1106 100.3C55.3445 100.188 55.5996 100.133 55.8759 100.133ZM59.9982 101.113V103.249C59.9982 103.398 60.0327 103.507 60.1018 103.576C60.1762 103.64 60.2985 103.672 60.4685 103.672H60.9867V104.612H60.2852C59.3445 104.612 58.8742 104.155 58.8742 103.241V101.113H58.3481V100.196H58.8742V99.1042H59.9982V100.196H60.9867V101.113H59.9982ZM62.9053 100.882C63.0488 100.648 63.2348 100.465 63.4633 100.332C63.6972 100.199 63.9629 100.133 64.2605 100.133V101.304H63.9655C63.6148 101.304 63.3491 101.387 63.1684 101.551C62.993 101.716 62.9053 102.003 62.9053 102.412V104.612H61.7893V100.196H62.9053V100.882ZM64.7252 102.388C64.7252 101.942 64.8129 101.546 64.9883 101.201C65.1689 100.855 65.4107 100.59 65.7137 100.404C66.0219 100.218 66.3647 100.125 66.742 100.125C67.0715 100.125 67.3584 100.191 67.6029 100.324C67.8527 100.457 68.052 100.624 68.2008 100.826V100.196H69.3247V104.612H68.2008V103.967C68.0573 104.174 67.858 104.347 67.6029 104.485C67.3531 104.618 67.0635 104.684 66.734 104.684C66.362 104.684 66.0219 104.589 65.7137 104.397C65.4107 104.206 65.1689 103.938 64.9883 103.592C64.8129 103.241 64.7252 102.84 64.7252 102.388ZM68.2008 102.404C68.2008 102.133 68.1476 101.902 68.0413 101.711C67.935 101.514 67.7916 101.365 67.6109 101.264C67.4302 101.158 67.2362 101.105 67.0289 101.105C66.8217 101.105 66.6304 101.156 66.455 101.257C66.2796 101.357 66.1361 101.506 66.0245 101.703C65.9183 101.894 65.8651 102.123 65.8651 102.388C65.8651 102.654 65.9183 102.888 66.0245 103.09C66.1361 103.287 66.2796 103.438 66.455 103.544C66.6357 103.651 66.827 103.704 67.0289 103.704C67.2362 103.704 67.4302 103.653 67.6109 103.552C67.7916 103.446 67.935 103.297 68.0413 103.106C68.1476 102.909 68.2008 102.675 68.2008 102.404ZM70.1277 102.404C70.1277 101.947 70.2207 101.549 70.4067 101.209C70.5927 100.863 70.8505 100.598 71.18 100.412C71.5094 100.22 71.8868 100.125 72.3119 100.125C72.8593 100.125 73.311 100.263 73.667 100.539C74.0284 100.81 74.2702 101.193 74.3924 101.687H73.1888C73.125 101.496 73.016 101.347 72.8619 101.241C72.7131 101.129 72.5271 101.073 72.3039 101.073C71.9851 101.073 71.7326 101.19 71.5466 101.424C71.3606 101.652 71.2676 101.979 71.2676 102.404C71.2676 102.824 71.3606 103.151 71.5466 103.385C71.7326 103.613 71.9851 103.728 72.3039 103.728C72.7556 103.728 73.0506 103.526 73.1888 103.122H74.3924C74.2702 103.6 74.0284 103.98 73.667 104.262C73.3057 104.543 72.854 104.684 72.3119 104.684C71.8868 104.684 71.5094 104.591 71.18 104.405C70.8505 104.214 70.5927 103.948 70.4067 103.608C70.2207 103.263 70.1277 102.861 70.1277 102.404ZM76.5094 101.113V103.249C76.5094 103.398 76.5439 103.507 76.613 103.576C76.6874 103.64 76.8096 103.672 76.9797 103.672H77.4978V104.612H76.7963C75.8557 104.612 75.3854 104.155 75.3854 103.241V101.113H74.8593V100.196H75.3854V99.1042H76.5094V100.196H77.4978V101.113H76.5094Z" fill="#0C2232" />
    <circle cx="229.323" cy="97.792" r="12.9062" stroke="#0C2232" stroke-width="0.832657" />
    <path d="M261.719 126.899C261.681 126.842 261.628 126.777 261.587 126.726C261.57 126.706 261.556 126.688 261.545 126.674C261.496 126.611 261.479 126.575 261.473 126.551C261.433 126.37 261.375 126.175 261.317 125.986C261.311 125.965 261.305 125.945 261.298 125.924C261.246 125.753 261.196 125.589 261.156 125.432C261.111 125.255 261.084 125.103 261.082 124.98C261.08 124.873 261.097 124.812 261.117 124.778C261.36 124.573 261.644 124.421 261.95 124.333C262.266 124.242 262.597 124.221 262.922 124.271C264.866 124.584 266.791 124.982 268.79 125.395C269.589 125.56 270.4 125.727 271.229 125.893L271.475 125.942L271.524 125.697C271.599 125.319 271.679 124.945 271.758 124.575C271.914 123.841 272.068 123.119 272.183 122.394L272.183 122.392C272.803 118.266 272.779 114.147 271.353 110.137C270.577 107.71 269.182 105.527 267.305 103.804C265.427 102.081 263.132 100.876 260.646 100.31L260.646 100.31L260.633 100.308C259.26 100.073 257.862 100.021 256.476 100.154C256.362 100.157 256.237 100.165 256.12 100.173C256.055 100.178 255.993 100.182 255.935 100.185C255.758 100.195 255.607 100.195 255.48 100.173C255.357 100.152 255.276 100.112 255.221 100.056C255.17 100.005 255.12 99.9176 255.097 99.7547C255.154 99.4948 255.273 99.2524 255.444 99.0484L255.258 98.8918L255.444 99.0484C255.621 98.8375 255.848 98.6744 256.104 98.5737C258.484 97.9175 260.923 97.4977 263.385 97.3204C274.736 97.0905 283.507 105.044 284.77 116.534L284.77 116.535C285.146 119.859 285.004 123.221 284.352 126.502L284.016 128.184L283.967 128.429L284.212 128.478L284.225 128.48L284.237 128.483L284.25 128.485L284.262 128.488L284.274 128.49L284.287 128.493L284.299 128.495L284.311 128.498L284.324 128.5L284.336 128.503L284.349 128.505L284.361 128.508L284.373 128.51L284.386 128.513L284.398 128.515L284.41 128.517L284.423 128.52L284.435 128.522L284.447 128.525L284.46 128.527L284.472 128.53L284.485 128.532L284.497 128.535L284.509 128.537L284.522 128.54L284.534 128.542L284.546 128.545L284.559 128.547L284.571 128.55L284.583 128.552L284.596 128.554L284.608 128.557L284.62 128.559L284.633 128.562L284.645 128.564L284.657 128.567L284.669 128.569L284.682 128.572L284.694 128.574L284.706 128.577L284.719 128.579L284.731 128.581L284.743 128.584L284.756 128.586L284.768 128.589L284.78 128.591L284.792 128.594L284.805 128.596L284.817 128.599L284.829 128.601L284.842 128.604L284.854 128.606L284.866 128.608L284.878 128.611L284.891 128.613L284.903 128.616L284.915 128.618L284.928 128.621L284.94 128.623L284.952 128.626L284.964 128.628L284.977 128.631L284.989 128.633L285.001 128.635L285.013 128.638L285.026 128.64L285.038 128.643L285.05 128.645L285.062 128.648L285.075 128.65L285.087 128.653L285.099 128.655L285.111 128.657L285.124 128.66L285.136 128.662L285.148 128.665L285.16 128.667L285.173 128.67L285.185 128.672L285.197 128.675L285.209 128.677L285.221 128.679L285.234 128.682L285.246 128.684L285.258 128.687L285.27 128.689L285.283 128.692L285.295 128.694L285.307 128.697L285.319 128.699L285.331 128.701L285.344 128.704L285.356 128.706L285.368 128.709L285.38 128.711L285.392 128.714L285.405 128.716L285.417 128.718L285.429 128.721L285.441 128.723L285.453 128.726L285.465 128.728L285.478 128.731L285.49 128.733L285.502 128.735L285.514 128.738L285.526 128.74L285.539 128.743L285.551 128.745L285.563 128.748L285.575 128.75L285.587 128.752L285.599 128.755L285.612 128.757L285.624 128.76L285.636 128.762L285.648 128.765L285.66 128.767L285.672 128.769L285.684 128.772L285.697 128.774L285.709 128.777L285.721 128.779L285.733 128.782L285.745 128.784L285.757 128.786L285.769 128.789L285.782 128.791L285.794 128.794L285.806 128.796L285.818 128.799L285.83 128.801L285.842 128.803L285.854 128.806L285.867 128.808L285.879 128.811L285.891 128.813L285.903 128.816L285.915 128.818L285.927 128.82L285.939 128.823L285.951 128.825L285.963 128.828L285.976 128.83L285.988 128.832L286 128.835L286.012 128.837L286.024 128.84L286.036 128.842L286.048 128.845L286.06 128.847L286.072 128.849L286.084 128.852L286.097 128.854L286.109 128.857L286.121 128.859L286.133 128.861L286.145 128.864L286.157 128.866L286.169 128.869L286.181 128.871L286.193 128.874L286.205 128.876L286.217 128.878L286.229 128.881L286.242 128.883L286.254 128.886L286.266 128.888L286.278 128.89L286.29 128.893L286.302 128.895L286.314 128.898L286.326 128.9L286.338 128.902L286.35 128.905L286.362 128.907L286.374 128.91L286.386 128.912L286.398 128.914L286.41 128.917L286.422 128.919L286.435 128.922L286.447 128.924L286.459 128.927L286.471 128.929L286.483 128.931L286.495 128.934L286.507 128.936L286.519 128.939L286.531 128.941L286.543 128.943L286.555 128.946L286.567 128.948L286.579 128.951L286.591 128.953L286.603 128.955L286.615 128.958L286.627 128.96L286.639 128.963L286.651 128.965L286.663 128.967L286.675 128.97L286.687 128.972L286.699 128.975L286.711 128.977L286.723 128.979L286.735 128.982L286.747 128.984L286.759 128.987L286.771 128.989L286.783 128.991L286.795 128.994L286.807 128.996L286.819 128.999L286.831 129.001L286.843 129.003L286.855 129.006L286.867 129.008L286.879 129.011L286.891 129.013L286.903 129.015L286.915 129.018L286.927 129.02L286.939 129.023L286.951 129.025L286.963 129.027L286.975 129.03L286.987 129.032L286.999 129.034L287.011 129.037L287.023 129.039L287.035 129.042L287.047 129.044L287.059 129.046L287.071 129.049L287.083 129.051L287.095 129.054L287.107 129.056L287.119 129.058L287.131 129.061L287.143 129.063L287.155 129.066L287.167 129.068L287.179 129.07L287.191 129.073L287.203 129.075L287.215 129.078L287.227 129.08L287.239 129.082L287.251 129.085L287.263 129.087L287.275 129.089L287.287 129.092L287.298 129.094L287.31 129.097L287.322 129.099L287.334 129.101L287.346 129.104L287.358 129.106L287.37 129.109L287.382 129.111L287.394 129.113L287.406 129.116L287.418 129.118L287.43 129.12L287.442 129.123L287.454 129.125L287.466 129.128L287.478 129.13L287.49 129.132L287.502 129.135L287.513 129.137L287.525 129.14L287.537 129.142L287.549 129.144L287.561 129.147L287.573 129.149L287.585 129.151L287.597 129.154L287.609 129.156L287.621 129.159L287.633 129.161L287.645 129.163L287.657 129.166L287.668 129.168L287.68 129.17L287.692 129.173L287.704 129.175L287.716 129.178L287.728 129.18L287.74 129.182L287.752 129.185L287.764 129.187L287.776 129.19L287.788 129.192L287.8 129.194L287.811 129.197L287.823 129.199L287.835 129.201L287.847 129.204L287.859 129.206L287.871 129.209L287.883 129.211L287.895 129.213L287.907 129.216L287.919 129.218L287.93 129.22L287.942 129.223L287.954 129.225L287.966 129.228L287.978 129.23L287.99 129.232L288.002 129.235L288.014 129.237L288.026 129.239L288.038 129.242L288.049 129.244L288.061 129.247L288.073 129.249L288.085 129.251L288.097 129.254L288.109 129.256L288.121 129.258L288.133 129.261L288.144 129.263L288.156 129.266L288.168 129.268L288.18 129.27L288.192 129.273L288.204 129.275L288.216 129.277L288.228 129.28L288.24 129.282L288.251 129.285L288.263 129.287L288.275 129.289L288.287 129.292L288.299 129.294L288.311 129.296L288.323 129.299L288.335 129.301L288.346 129.303L288.358 129.306L288.37 129.308L288.382 129.311L288.394 129.313L288.406 129.315L288.418 129.318L288.429 129.32L288.441 129.322L288.453 129.325L288.465 129.327L288.477 129.33L288.489 129.332L288.501 129.334L288.512 129.337L288.524 129.339L288.536 129.341L288.548 129.344L288.56 129.346L288.572 129.348L288.584 129.351L288.595 129.353L288.607 129.356L288.619 129.358L288.631 129.36L288.643 129.363L288.655 129.365L288.667 129.367L288.678 129.37L288.69 129.372L288.702 129.375L288.714 129.377L288.726 129.379L288.738 129.382L288.749 129.384L288.761 129.386L288.773 129.389L288.785 129.391L288.797 129.393L288.809 129.396L288.821 129.398L288.832 129.401L288.844 129.403L288.856 129.405L288.868 129.408L288.88 129.41L288.892 129.412L288.903 129.415L288.915 129.417L288.927 129.419L288.939 129.422L288.951 129.424L288.963 129.427L288.974 129.429L288.986 129.431L288.998 129.434L289.01 129.436L289.022 129.438L289.034 129.441L289.045 129.443L289.057 129.445L289.069 129.448L289.081 129.45L289.093 129.453L289.105 129.455L289.116 129.457L289.128 129.46L289.14 129.462L289.152 129.464L289.164 129.467L289.176 129.469L289.187 129.471L289.199 129.474L289.211 129.476L289.223 129.479L289.235 129.481L289.246 129.483L289.258 129.486L289.27 129.488L289.282 129.49L289.294 129.493L289.306 129.495L289.317 129.497L289.329 129.5L289.341 129.502L289.353 129.504L289.365 129.507L289.377 129.509L289.388 129.512L289.4 129.514L289.412 129.516L289.424 129.519L289.436 129.521L289.447 129.523L289.459 129.526L289.471 129.528L289.483 129.53L289.495 129.533L289.506 129.535L289.518 129.538L289.53 129.54L289.542 129.542L289.554 129.545L289.566 129.547L289.577 129.549L289.589 129.552L289.601 129.554L289.613 129.556L289.625 129.559L289.636 129.561L289.648 129.563L289.66 129.566L289.672 129.568L289.684 129.571L289.695 129.573L289.707 129.575L289.719 129.578L289.731 129.58L289.743 129.582L289.755 129.585L289.766 129.587L289.778 129.589L289.79 129.592L289.802 129.594L289.814 129.596L289.825 129.599L289.837 129.601L289.849 129.604L289.861 129.606L289.873 129.608L289.884 129.611L289.896 129.613L289.908 129.615L289.92 129.618L289.932 129.62L289.943 129.622L289.955 129.625L289.967 129.627L289.979 129.629L289.991 129.632L290.002 129.634L290.014 129.637L290.026 129.639L290.038 129.641L290.05 129.644L290.061 129.646L290.073 129.648L290.085 129.651L290.097 129.653L290.109 129.655L290.121 129.658L290.132 129.66L290.144 129.662L290.156 129.665L290.168 129.667L290.18 129.67L290.191 129.672L290.203 129.674L290.215 129.677L290.227 129.679L290.239 129.681L290.25 129.684L290.262 129.686L290.274 129.688L290.286 129.691L290.298 129.693L290.309 129.695L290.321 129.698L290.333 129.7L290.345 129.703L290.357 129.705L290.357 129.705L290.362 129.706C291.317 129.875 292.254 130.128 293.163 130.464C293.652 130.667 293.854 130.912 293.901 131.143C293.948 131.38 293.853 131.704 293.508 132.112C293.198 132.439 292.847 132.723 292.463 132.956L292.463 132.956L292.454 132.962C287.173 136.485 281.886 140.001 276.593 143.512C276.034 143.823 275.454 144.094 274.856 144.322L273.525 144.062C273.161 143.573 272.791 143.09 272.422 142.61C271.634 141.582 270.852 140.563 270.157 139.502L270.157 139.502L270.155 139.499C268.165 136.574 266.205 133.631 264.244 130.686C263.403 129.423 262.562 128.161 261.719 126.899ZM261.719 126.899L261.511 127.038M261.719 126.899C261.719 126.899 261.719 126.899 261.719 126.899L261.511 127.038M261.511 127.038C262.354 128.299 263.194 129.561 264.035 130.823C265.996 133.769 267.957 136.714 269.948 139.639L260.93 124.61C260.718 124.882 260.891 125.447 261.059 125.997C261.124 126.208 261.188 126.417 261.229 126.606C261.253 126.713 261.328 126.805 261.405 126.899C261.442 126.944 261.479 126.99 261.511 127.038Z" fill="white" stroke="black" stroke-width="0.5" />
</svg>
    