<svg width="291" height="216" viewBox="0 0 291 216" fill="none" xmlns="http://www.w3.org/2000/svg">
    <path d="M38.0913 23.7856C100.703 -26.7802 194.637 10.4596 240.345 68.4014C264.354 98.8366 292.288 118.839 290.954 157.04C289.201 207.246 222.982 145.474 172.225 157.04C83.1084 177.348 92.5579 224.742 62.485 213.219C-1.13835 188.84 86.8046 118.676 21.4179 103.905C-1.21925 98.7912 -18.6155 69.5826 38.0913 23.7856Z" fill="#92D0FF" />
    <path d="M212.815 31.9599L211.811 39.0813L188.8 201.319H76.9431L99.9545 39.0813L100.967 31.9599C101.343 29.6353 102.518 27.5145 104.289 25.9626C106.06 24.4107 108.317 23.5248 110.671 23.4572H205.522C206.595 23.4269 207.661 23.6367 208.643 24.0713C209.625 24.5059 210.497 25.1544 211.196 25.9693C211.895 26.7842 212.403 27.745 212.683 28.7815C212.963 29.8179 213.008 30.9039 212.815 31.9599Z" fill="white" />
    <path d="M188.8 201.748H76.9431C76.8815 201.749 76.8204 201.736 76.7642 201.711C76.7079 201.685 76.6577 201.648 76.6171 201.602C76.5771 201.555 76.5473 201.5 76.5296 201.441C76.5119 201.382 76.5066 201.32 76.5141 201.259L100.538 31.8999C100.93 29.4703 102.155 27.2532 104.005 25.6294C105.854 24.0057 108.211 23.0768 110.671 23.0025H205.522C206.642 22.974 207.754 23.1894 208.782 23.6339C209.811 24.0784 210.73 24.7412 211.476 25.5765C212.217 26.448 212.759 27.4707 213.065 28.5732C213.37 29.6756 213.431 30.8314 213.244 31.9599L212.24 39.0813L189.22 201.379C189.206 201.481 189.155 201.574 189.078 201.642C189.001 201.709 188.902 201.747 188.8 201.748ZM77.4322 200.89H188.422L212.394 31.8656C212.564 30.8595 212.512 29.8287 212.242 28.8447C211.972 27.8608 211.492 26.9475 210.833 26.1685C210.17 25.4185 209.351 24.8225 208.434 24.4223C207.516 24.0222 206.522 23.8275 205.522 23.8519H110.671C108.42 23.92 106.263 24.7687 104.569 26.2526C102.876 27.7366 101.751 29.7634 101.387 31.9857L100.383 39.107L77.4322 200.89Z" fill="#0C2232" />
    <path d="M148.851 107.635H99.7743C99.6509 107.63 99.5341 107.578 99.4482 107.489C99.4098 107.441 99.3816 107.386 99.3653 107.327C99.3491 107.268 99.3452 107.206 99.3539 107.146L106.638 56.1296C106.654 56.0272 106.706 55.934 106.785 55.8664C106.864 55.7989 106.964 55.7614 107.067 55.7606H156.127C156.189 55.76 156.25 55.7728 156.307 55.798C156.363 55.8232 156.413 55.8603 156.454 55.9067C156.495 55.9532 156.525 56.0078 156.543 56.067C156.56 56.1262 156.565 56.1885 156.556 56.2497L149.323 107.266C149.306 107.376 149.248 107.475 149.16 107.544C149.073 107.612 148.962 107.645 148.851 107.635ZM100.28 106.777H148.483L155.595 56.6186H107.393L100.28 106.777Z" fill="#D1D3D4" />
    <path d="M195.458 56.6187H169.272C169.158 56.6187 169.049 56.5735 168.968 56.493C168.888 56.4126 168.843 56.3035 168.843 56.1897C168.843 56.0759 168.888 55.9668 168.968 55.8863C169.049 55.8059 169.158 55.7607 169.272 55.7607H195.466C195.58 55.7607 195.689 55.8059 195.769 55.8863C195.85 55.9668 195.895 56.0759 195.895 56.1897C195.895 56.2467 195.884 56.3032 195.862 56.3559C195.84 56.4085 195.807 56.4562 195.766 56.4961C195.726 56.5361 195.677 56.5675 195.624 56.5885C195.571 56.6096 195.515 56.6198 195.458 56.6187Z" fill="#D1D3D4" />
    <path d="M194.497 63.4054H168.302C168.188 63.4054 168.079 63.3602 167.999 63.2797C167.918 63.1993 167.873 63.0901 167.873 62.9764C167.873 62.8626 167.918 62.7535 167.999 62.673C168.079 62.5926 168.188 62.5474 168.302 62.5474H194.497C194.61 62.5474 194.719 62.5926 194.8 62.673C194.88 62.7535 194.926 62.8626 194.926 62.9764C194.926 63.0901 194.88 63.1993 194.8 63.2797C194.719 63.3602 194.61 63.4054 194.497 63.4054Z" fill="#D1D3D4" />
    <path d="M193.536 70.1921H167.333C167.219 70.1899 167.112 70.144 167.032 70.064C166.952 69.984 166.906 69.8762 166.904 69.7631C166.904 69.6493 166.949 69.5402 167.029 69.4598C167.11 69.3793 167.219 69.3341 167.333 69.3341H193.536C193.649 69.3341 193.759 69.3793 193.839 69.4598C193.919 69.5402 193.965 69.6493 193.965 69.7631C193.965 69.8769 193.919 69.986 193.839 70.0664C193.759 70.1469 193.649 70.1921 193.536 70.1921Z" fill="#D1D3D4" />
    <path d="M192.575 76.9874H166.372C166.258 76.9874 166.149 76.9422 166.068 76.8617C165.988 76.7813 165.943 76.6722 165.943 76.5584C165.943 76.4446 165.988 76.3355 166.068 76.255C166.149 76.1746 166.258 76.1294 166.372 76.1294H192.575C192.688 76.1294 192.798 76.1746 192.878 76.255C192.959 76.3355 193.004 76.4446 193.004 76.5584C193.004 76.6722 192.959 76.7813 192.878 76.8617C192.798 76.9422 192.688 76.9874 192.575 76.9874Z" fill="#D1D3D4" />
    <path d="M191.579 83.7741H165.411C165.297 83.7741 165.188 83.7289 165.107 83.6485C165.027 83.568 164.982 83.4589 164.982 83.3451C164.982 83.2314 165.027 83.1222 165.107 83.0418C165.188 82.9613 165.297 82.9161 165.411 82.9161H191.579C191.693 82.9161 191.802 82.9613 191.883 83.0418C191.963 83.1222 192.008 83.2314 192.008 83.3451C192.008 83.4589 191.963 83.568 191.883 83.6485C191.802 83.7289 191.693 83.7741 191.579 83.7741Z" fill="#D1D3D4" />
    <path d="M183.068 90.5694H164.441C164.328 90.5672 164.22 90.5213 164.14 90.4413C164.06 90.3614 164.014 90.2535 164.012 90.1404C164.012 90.0266 164.057 89.9175 164.138 89.8371C164.218 89.7566 164.327 89.7114 164.441 89.7114H183.068C183.182 89.7114 183.291 89.7566 183.372 89.8371C183.452 89.9175 183.497 90.0266 183.497 90.1404C183.497 90.2542 183.452 90.3633 183.372 90.4438C183.291 90.5242 183.182 90.5694 183.068 90.5694Z" fill="#D1D3D4" />
    <path d="M186.723 107.206H163.557C162.95 107.222 162.347 107.103 161.792 106.856C161.237 106.61 160.744 106.243 160.348 105.782C159.953 105.32 159.665 104.777 159.507 104.191C159.348 103.604 159.322 102.99 159.431 102.393C159.645 101.078 160.31 99.8783 161.312 99.0001C162.314 98.1219 163.59 97.6196 164.922 97.5792H188.087C188.695 97.5617 189.299 97.6802 189.856 97.926C190.412 98.1718 190.906 98.5388 191.303 99.0001C191.699 99.4613 191.987 100.005 192.146 100.592C192.306 101.179 192.332 101.794 192.223 102.393C192.008 103.709 191.342 104.909 190.338 105.788C189.335 106.666 188.056 107.167 186.723 107.206Z" fill="#D1D3D4" />
    <path d="M121.439 174.292H98.2728C97.6652 174.31 97.0612 174.192 96.5053 173.946C95.9493 173.7 95.4554 173.333 95.0597 172.871C94.664 172.41 94.3766 171.866 94.2185 171.279C94.0603 170.692 94.0355 170.077 94.1459 169.479C94.3603 168.164 95.0255 166.965 96.0274 166.087C97.0292 165.208 98.3054 164.706 99.637 164.666H122.803C123.41 164.648 124.014 164.766 124.57 165.012C125.126 165.258 125.62 165.625 126.016 166.087C126.412 166.548 126.699 167.092 126.857 167.679C127.015 168.266 127.04 168.881 126.93 169.479C126.717 170.795 126.052 171.995 125.05 172.873C124.048 173.752 122.771 174.254 121.439 174.292Z" fill="#D1D3D4" />
    <path d="M174.051 174.292H150.885C150.277 174.31 149.673 174.192 149.117 173.946C148.561 173.7 148.068 173.333 147.672 172.871C147.276 172.41 146.989 171.866 146.831 171.279C146.672 170.692 146.648 170.077 146.758 169.479C146.971 168.163 147.636 166.963 148.638 166.085C149.64 165.206 150.917 164.704 152.249 164.666H175.415C176.023 164.648 176.626 164.766 177.182 165.012C177.738 165.258 178.232 165.625 178.628 166.087C179.024 166.548 179.311 167.092 179.469 167.679C179.627 168.266 179.652 168.881 179.542 169.479C179.329 170.795 178.664 171.995 177.662 172.873C176.66 173.752 175.383 174.254 174.051 174.292Z" fill="#D1D3D4" />
    <path d="M131.709 158.514H92.5671C92.5051 158.512 92.4442 158.497 92.3882 158.47C92.3321 158.444 92.282 158.406 92.2411 158.359C92.2009 158.315 92.1714 158.261 92.1551 158.203C92.1387 158.145 92.1359 158.084 92.1467 158.025L97.2947 121.517C97.3109 121.415 97.363 121.322 97.4415 121.254C97.5201 121.186 97.6201 121.149 97.7237 121.148H136.857C136.918 121.147 136.98 121.16 137.036 121.185C137.092 121.21 137.142 121.247 137.183 121.294C137.224 121.34 137.255 121.395 137.273 121.454C137.29 121.514 137.295 121.576 137.286 121.637L132.138 158.145C132.121 158.247 132.069 158.34 131.991 158.408C131.912 158.476 131.812 158.513 131.709 158.514ZM93.0991 157.656H131.374L136.428 122.006H98.1184L93.0991 157.656Z" fill="#D1D3D4" />
    <path d="M184.321 158.514H145.179C145.117 158.513 145.056 158.498 145 158.472C144.943 158.445 144.893 158.407 144.853 158.359C144.813 158.314 144.784 158.261 144.766 158.203C144.748 158.145 144.743 158.085 144.75 158.025L149.898 121.517C149.913 121.416 149.963 121.322 150.04 121.255C150.117 121.187 150.216 121.149 150.319 121.148H189.46C189.522 121.147 189.583 121.16 189.64 121.185C189.696 121.21 189.746 121.247 189.786 121.294C189.828 121.34 189.858 121.395 189.876 121.454C189.894 121.514 189.898 121.576 189.889 121.637L184.741 158.145C184.727 158.247 184.677 158.34 184.599 158.407C184.522 158.475 184.423 158.513 184.321 158.514ZM145.711 157.656H183.978L189.04 122.006H150.73L145.711 157.656Z" fill="#D1D3D4" />
    <path d="M122.983 189.015C122.724 189.02 122.466 188.967 122.229 188.862C121.992 188.757 121.781 188.601 121.61 188.406C121.439 188.206 121.313 187.972 121.242 187.718C121.171 187.465 121.156 187.199 121.198 186.939C121.283 186.403 121.554 185.914 121.963 185.558C122.373 185.201 122.895 185.001 123.438 184.991C123.696 184.988 123.952 185.039 124.189 185.143C124.426 185.247 124.638 185.4 124.81 185.592C124.982 185.792 125.107 186.027 125.176 186.281C125.246 186.534 125.259 186.8 125.214 187.059C125.133 187.596 124.864 188.087 124.456 188.445C124.048 188.803 123.526 189.005 122.983 189.015ZM123.438 185.849C123.103 185.863 122.783 185.991 122.531 186.211C122.278 186.431 122.108 186.73 122.048 187.059C122.024 187.198 122.031 187.341 122.068 187.478C122.105 187.614 122.171 187.741 122.262 187.849C122.353 187.949 122.464 188.029 122.589 188.082C122.713 188.136 122.848 188.161 122.983 188.157C123.318 188.144 123.639 188.016 123.89 187.794C124.142 187.572 124.309 187.27 124.364 186.939C124.389 186.802 124.384 186.661 124.348 186.526C124.313 186.391 124.248 186.265 124.158 186.158C124.068 186.058 123.956 185.978 123.832 185.925C123.708 185.871 123.573 185.846 123.438 185.849Z" fill="#D1D3D4" />
    <path d="M132.34 188.091C133.027 187.451 133.133 186.45 132.577 185.853C132.022 185.257 131.015 185.292 130.328 185.931C129.642 186.571 129.536 187.573 130.091 188.169C130.647 188.765 131.654 188.73 132.34 188.091Z" fill="#D1D3D4" />
    <path d="M139.861 188.032C140.546 187.394 140.652 186.395 140.098 185.8C139.544 185.205 138.539 185.24 137.854 185.878C137.169 186.516 137.063 187.515 137.618 188.11C138.172 188.705 139.176 188.67 139.861 188.032Z" fill="#D1D3D4" />
    <path d="M148.611 188.088C149.297 187.448 149.403 186.447 148.848 185.85C148.292 185.254 147.285 185.289 146.599 185.928C145.912 186.568 145.806 187.57 146.362 188.166C146.917 188.762 147.924 188.728 148.611 188.088Z" fill="#D1D3D4" />
    <path d="M117.114 44.1864H110.636C110.523 44.1864 110.414 44.1412 110.333 44.0607C110.253 43.9803 110.207 43.8711 110.207 43.7574C110.207 43.6436 110.253 43.5345 110.333 43.454C110.414 43.3736 110.523 43.3284 110.636 43.3284H117.114C117.228 43.3284 117.337 43.3736 117.418 43.454C117.498 43.5345 117.543 43.6436 117.543 43.7574C117.543 43.8711 117.498 43.9803 117.418 44.0607C117.337 44.1412 117.228 44.1864 117.114 44.1864Z" fill="#D1D3D4" />
    <path d="M116.703 47.1035H110.216C110.103 47.1013 109.995 47.0554 109.915 46.9755C109.835 46.8955 109.789 46.7876 109.787 46.6745C109.787 46.5608 109.832 46.4517 109.913 46.3712C109.993 46.2907 110.102 46.2455 110.216 46.2455H116.703C116.816 46.2455 116.925 46.2907 117.006 46.3712C117.086 46.4517 117.132 46.5608 117.132 46.6745C117.129 46.7876 117.083 46.8955 117.003 46.9755C116.923 47.0554 116.816 47.1013 116.703 47.1035Z" fill="#D1D3D4" />
    <path d="M116.282 50.0121H109.804C109.69 50.0121 109.581 49.9669 109.501 49.8865C109.42 49.806 109.375 49.6969 109.375 49.5831C109.377 49.47 109.423 49.3622 109.503 49.2822C109.583 49.2022 109.691 49.1563 109.804 49.1541H116.282C116.396 49.1541 116.505 49.1993 116.585 49.2798C116.666 49.3602 116.711 49.4693 116.711 49.5831C116.711 49.6969 116.666 49.806 116.585 49.8865C116.505 49.9669 116.396 50.0121 116.282 50.0121Z" fill="#D1D3D4" />
    <path d="M212.815 31.9599L211.811 39.0813H99.9545L100.967 31.9599C101.343 29.6353 102.518 27.5145 104.289 25.9626C106.06 24.4107 108.317 23.5248 110.671 23.4572H205.522C206.595 23.4269 207.661 23.6367 208.643 24.0713C209.625 24.5059 210.497 25.1544 211.196 25.9693C211.895 26.7842 212.403 27.745 212.683 28.7815C212.963 29.8179 213.008 30.9039 212.815 31.9599Z" fill="#0C2232" />
    <path d="M159.568 31.7025H147.247C147.133 31.7025 147.024 31.6573 146.944 31.5769C146.863 31.4964 146.818 31.3873 146.818 31.2735C146.818 31.1598 146.863 31.0506 146.944 30.9702C147.024 30.8897 147.133 30.8445 147.247 30.8445H159.568C159.682 30.8445 159.791 30.8897 159.871 30.9702C159.952 31.0506 159.997 31.1598 159.997 31.2735C159.997 31.3873 159.952 31.4964 159.871 31.5769C159.791 31.6573 159.682 31.7025 159.568 31.7025Z" fill="#D1D3D4" />
    <path d="M165.84 31.7025H163.66C163.547 31.7003 163.439 31.6544 163.359 31.5745C163.279 31.4945 163.234 31.3866 163.231 31.2735C163.231 31.1598 163.277 31.0506 163.357 30.9702C163.437 30.8897 163.547 30.8445 163.66 30.8445H165.84C165.953 30.8445 166.063 30.8897 166.143 30.9702C166.223 31.0506 166.269 31.1598 166.269 31.2735C166.269 31.3873 166.223 31.4964 166.143 31.5769C166.063 31.6573 165.953 31.7025 165.84 31.7025Z" fill="#D1D3D4" />
    <path d="M98.6589 87.7466L106.655 96.0005C106.655 96.0005 121.087 80.2392 121.241 78.2658C121.691 74.724 122.68 71.272 124.176 68.0299C124.241 67.8229 124.382 67.6481 124.57 67.5409C125.025 67.3693 125.351 68.0042 125.428 68.4847C125.573 69.6567 125.558 70.8429 125.385 72.011C126.818 70.0291 128.277 68.0728 129.778 66.1424C129.833 66.045 129.908 65.9608 129.998 65.8956C130.089 65.8304 130.192 65.7857 130.302 65.7648C130.469 65.7753 130.627 65.8453 130.748 65.9622C131.694 66.77 132.403 67.8199 132.798 68.9995C133.055 69.6248 133.203 70.2892 133.236 70.9643C133.296 74.7566 129.898 80.917 126.372 82.4699C126.372 82.4699 109.95 110.612 106.999 110.286C104.047 109.96 92.4127 96.8242 92.4127 96.8242L98.6589 87.7466Z" fill="white" />
    <path d="M107.007 110.715H106.939C103.91 110.372 93.2621 98.4629 92.0524 97.1073C91.9925 97.0315 91.96 96.9378 91.96 96.8413C91.96 96.7448 91.9925 96.6511 92.0524 96.5753L98.3329 87.5063C98.3697 87.4552 98.4171 87.4127 98.4719 87.3816C98.5267 87.3505 98.5876 87.3316 98.6503 87.3262C98.7135 87.3203 98.7773 87.3289 98.8367 87.3511C98.8961 87.3734 98.9497 87.4089 98.9935 87.4549L106.673 95.3741C112.224 89.291 120.744 79.5356 120.864 78.2143C121.312 74.6336 122.301 71.1418 123.798 67.8583C123.851 67.7035 123.935 67.5608 124.044 67.4385C124.153 67.3162 124.285 67.2169 124.433 67.1462C124.554 67.0991 124.684 67.0801 124.813 67.0905C124.942 67.1009 125.068 67.1405 125.179 67.2062C125.378 67.3562 125.541 67.5474 125.658 67.7667C125.775 67.9859 125.843 68.228 125.857 68.4761C125.936 69.1652 125.967 69.859 125.952 70.5524C127.093 68.9909 128.26 67.4379 129.444 65.9193C129.536 65.77 129.662 65.6438 129.81 65.5501C129.959 65.4565 130.127 65.3979 130.302 65.3787C130.571 65.3901 130.828 65.4931 131.031 65.6704C132.037 66.5125 132.798 67.6087 133.236 68.845C133.507 69.5178 133.664 70.2312 133.699 70.9557C133.759 74.7566 130.49 81.0285 126.698 82.8045C123.798 87.7723 110.19 110.715 107.007 110.715ZM92.9104 96.7898C97.5693 102.015 105.008 109.66 107.024 109.857C108.792 109.857 117.998 95.8718 125.952 82.2469C125.997 82.168 126.066 82.1052 126.149 82.0667C129.624 80.5394 132.824 74.5163 132.764 70.9643C132.736 70.3364 132.6 69.718 132.361 69.1367C131.985 68.0354 131.322 67.0547 130.439 66.2968C130.327 66.2024 130.284 66.1852 130.267 66.1852C130.197 66.2463 130.133 66.3154 130.079 66.3912C128.586 68.3131 127.11 70.2864 125.686 72.2598C125.629 72.3383 125.548 72.3955 125.455 72.4221C125.362 72.4487 125.263 72.4432 125.174 72.4064C125.085 72.3697 125.01 72.3039 124.963 72.2197C124.916 72.1355 124.898 72.0378 124.913 71.9424C125.084 70.8056 125.098 69.651 124.956 68.5104C124.944 68.2871 124.849 68.0763 124.69 67.9184C124.624 67.9963 124.575 68.0867 124.545 68.1844C123.068 71.3828 122.09 74.7885 121.645 78.2829C121.464 80.2992 109.358 93.6153 106.93 96.3008C106.849 96.3853 106.738 96.4346 106.621 96.438C106.504 96.4301 106.393 96.385 106.304 96.3094L98.6761 88.433L92.9104 96.7898Z" fill="#0C2232" />
    <path d="M42.2888 206.072C42.2888 206.072 39.5003 213.708 40.7358 214.446C41.9713 215.184 66.5957 214.446 65.1114 212.971C63.6271 211.495 57.072 206.57 57.072 206.57" fill="white" />
    <path d="M46.3814 215.141C43.2326 215.141 40.8645 215.03 40.5042 214.815C39.1657 214.017 40.7959 208.904 41.877 205.926C41.9193 205.82 42.0007 205.734 42.1045 205.687C42.2082 205.639 42.3264 205.632 42.4347 205.669C42.54 205.709 42.6252 205.79 42.6718 205.893C42.7184 205.995 42.7226 206.112 42.6835 206.218C41.3107 210.002 40.4956 213.674 40.9675 214.086C42.6835 214.85 61.9454 213.949 64.5709 213.039C62.7605 211.366 56.8489 206.956 56.8489 206.913C56.8039 206.879 56.7659 206.837 56.7372 206.789C56.7085 206.74 56.6896 206.686 56.6816 206.631C56.6656 206.518 56.6949 206.404 56.7631 206.313C56.8314 206.222 56.933 206.161 57.0457 206.145C57.1583 206.129 57.2727 206.158 57.3637 206.227C57.6297 206.424 63.9703 211.186 65.4546 212.67C65.562 212.77 65.6279 212.907 65.639 213.053C65.6501 213.2 65.6057 213.345 65.5147 213.46C64.5966 214.584 53.4942 215.141 46.3814 215.141Z" fill="#0C2232" />
    <path d="M67.1706 60.2823C66.0037 60.2308 64.8369 60.0335 63.4898 59.9134C62.1428 59.7932 60.6155 59.3385 60.5898 58.0858C60.5898 57.0048 61.8596 56.1124 61.5765 55.0743C61.4769 54.7941 61.3255 54.535 61.1303 54.3107C59.3352 51.9015 58.5417 48.8912 58.916 45.9102C59.2902 42.9291 60.8031 40.2084 63.138 38.3177C62.7863 38.4378 62.4087 38.086 62.3744 37.7171C62.3721 37.34 62.5167 36.9769 62.7777 36.7047C63.7239 35.6649 64.9521 34.9226 66.3126 34.5683C70.5694 33.2555 75.123 33.2555 79.3798 34.5683C82.6402 35.5206 86.5612 38.1204 86.1322 42.0585C86.0797 42.7727 85.7834 43.4471 85.293 43.9688C84.8025 44.4905 84.1477 44.8278 83.4381 44.9242C82.7088 49.1456 80.4952 52.0284 77.7153 55.0829C75.8471 57.1807 73.4891 58.7841 70.8514 59.7503C69.673 60.1743 68.4209 60.3553 67.1706 60.2823Z" fill="white" />
    <path d="M67.7025 60.7542H67.1706C66.4756 60.7542 65.7978 60.6426 65.0685 60.5568C64.5623 60.4968 64.0389 60.4367 63.4726 60.3852C61.4392 60.2136 60.2123 59.3728 60.1865 58.1373C60.219 57.5462 60.4216 56.9771 60.77 56.4985C61.0531 56.0266 61.2933 55.6405 61.1904 55.2287C61.1126 55.0245 60.9993 54.8357 60.8557 54.671C59.0321 52.2711 58.1716 49.2761 58.443 46.2742C58.7145 43.2722 60.0984 40.4802 62.3229 38.4464C62.1266 38.2535 62.0024 37.9991 61.9711 37.7256C61.9612 37.482 62 37.2388 62.0855 37.0104C62.171 36.782 62.3013 36.573 62.4688 36.3958C63.4631 35.3124 64.746 34.5355 66.1667 34.1564C70.505 32.8212 75.1445 32.8212 79.4828 34.1564C83.3094 35.2718 86.973 38.1632 86.5355 42.11C86.4686 42.864 86.1681 43.5784 85.676 44.1536C85.1838 44.7288 84.5245 45.1362 83.7899 45.3189C82.9319 49.6603 80.478 52.6633 78.0156 55.3745C76.105 57.5247 73.6904 59.1668 70.9886 60.1536C69.9363 60.5425 68.8244 60.7458 67.7025 60.7542ZM63.0951 37.8972C63.1781 37.8962 63.2598 37.9171 63.3321 37.9578C63.4044 37.9985 63.4647 38.0575 63.5069 38.1289C63.5595 38.2153 63.5805 38.3171 63.5664 38.4172C63.5523 38.5173 63.504 38.6095 63.4297 38.678C61.1857 40.5019 59.7324 43.1216 59.3727 45.9909C59.013 48.8602 59.7748 51.7576 61.4992 54.079C61.7312 54.3437 61.9064 54.6533 62.014 54.9884C62.0702 55.3277 62.0541 55.675 61.9668 56.0077C61.8796 56.3403 61.7232 56.6508 61.5078 56.9189C61.2535 57.2668 61.0938 57.6748 61.0445 58.103C61.0445 59.2441 63.138 59.4757 63.5498 59.5186C64.1161 59.5186 64.6567 59.6302 65.1714 59.6902C65.875 59.776 66.5442 59.8533 67.2135 59.879C68.3992 59.9516 69.5873 59.7823 70.7055 59.3814C73.2729 58.4461 75.5669 56.8862 77.3807 54.8426C80.4351 51.4878 82.3313 48.7852 83.0005 44.8985C83.0162 44.8012 83.0648 44.7123 83.1382 44.6467C83.2117 44.5811 83.3054 44.5428 83.4038 44.5381C84.0082 44.4429 84.5626 44.1461 84.977 43.696C85.3913 43.2458 85.6412 42.6687 85.686 42.0585C86.115 38.1203 81.8337 35.778 79.2425 35.023C75.069 33.7397 70.6062 33.7397 66.4327 35.023C65.162 35.3467 64.0156 36.0393 63.138 37.0135C62.9471 37.1995 62.8337 37.4509 62.8206 37.7171C62.8279 37.7602 62.8438 37.8014 62.8674 37.8383C62.891 37.8751 62.9217 37.9068 62.9578 37.9316L63.0951 37.8972Z" fill="#0C2232" />
    <path d="M49.6504 85.6359C49.6504 85.6359 40.5728 104.117 41.2764 109.78C41.9799 115.443 60.7356 113.212 60.7356 113.212L59.7489 85.1383L49.6504 85.6359Z" fill="white" />
    <path d="M52.9966 114.087C52.4303 114.087 51.8469 114.087 51.2806 114.087C44.7084 113.881 41.1992 112.457 40.8646 109.866C40.1181 104.143 48.904 86.2451 49.2729 85.4901C49.3084 85.4216 49.361 85.3634 49.4257 85.3213C49.4903 85.2792 49.5648 85.2546 49.6418 85.2499L59.7404 84.7608C59.7967 84.7577 59.8531 84.766 59.9062 84.7852C59.9592 84.8043 60.0079 84.834 60.0493 84.8724C60.0925 84.9095 60.1271 84.9556 60.1508 85.0075C60.1745 85.0593 60.1867 85.1157 60.1866 85.1727L61.1647 113.212C61.1678 113.32 61.131 113.425 61.0613 113.507C60.9916 113.59 60.894 113.643 60.7871 113.658C58.1992 113.932 55.599 114.075 52.9966 114.087ZM49.925 86.065C48.8954 88.1842 41.0362 104.589 41.7054 109.728C42.2888 113.95 54.9442 113.435 60.3067 112.843L59.3371 85.636L49.925 86.065Z" fill="#0C2232" />
    <path d="M85.8577 202.46L86.3467 214.472C86.3467 214.472 108.843 214.635 107.531 212.996C106.218 211.358 96.0335 204.133 96.0335 204.133L94.3947 195.262L85.8577 202.46Z" fill="white" />
    <path d="M89.2382 214.893H86.3467C86.2359 214.893 86.1293 214.85 86.0493 214.773C85.9693 214.696 85.9222 214.591 85.9177 214.481L85.4287 202.469C85.4262 202.404 85.438 202.34 85.4632 202.281C85.4884 202.222 85.5264 202.169 85.5745 202.126L94.1544 194.901C94.2121 194.854 94.281 194.821 94.3546 194.808C94.4282 194.794 94.504 194.8 94.5749 194.824C94.6442 194.851 94.7056 194.895 94.7536 194.952C94.8016 195.009 94.8345 195.077 94.8494 195.15L96.4624 203.85C97.7494 204.768 106.63 211.109 107.899 212.696C107.974 212.787 108.022 212.897 108.038 213.014C108.053 213.131 108.035 213.25 107.985 213.357C107.333 214.644 96.9944 214.893 89.2382 214.893ZM86.7586 214.035C95.7932 214.086 105.42 213.743 107.033 213.065C105.591 211.555 99.1394 206.845 95.7846 204.485C95.7396 204.455 95.7011 204.415 95.6716 204.37C95.6422 204.324 95.6222 204.273 95.613 204.219L94.103 196.077L86.2952 202.692L86.7586 214.035Z" fill="#0C2232" />
    <path d="M89.9332 118.24L98.6589 205.755L84.2103 206.081L67.797 144.254L58.7022 206.613L41.9542 205.755C41.9542 205.755 44.8714 170.946 46.39 157.707C47.9087 144.468 50.2596 121.551 50.2596 121.551L89.9332 118.24Z" fill="#0C2232" />
    <path d="M84.5535 51.076C84.5535 51.076 87.5651 56.0438 86.8615 57.0219C86.158 58 83.9872 57.245 83.9872 57.245" fill="white" />
    <path d="M85.5573 57.9485C84.9732 57.938 84.3943 57.8366 83.8413 57.6482C83.7466 57.6029 83.6719 57.5244 83.6312 57.4276C83.5905 57.3308 83.5867 57.2225 83.6205 57.1231C83.6544 57.0237 83.7235 56.9402 83.8148 56.8883C83.9061 56.8365 84.0132 56.8199 84.1159 56.8417C84.7336 57.0476 86.115 57.305 86.5011 56.7645C86.8872 56.224 85.686 53.7873 84.1759 51.2991C84.1379 51.2513 84.1104 51.1959 84.0955 51.1366C84.0805 51.0774 84.0784 51.0156 84.0893 50.9555C84.1002 50.8953 84.1238 50.8382 84.1585 50.7879C84.1933 50.7376 84.2383 50.6954 84.2907 50.6639C84.3432 50.6325 84.4017 50.6126 84.4624 50.6056C84.5231 50.5986 84.5846 50.6047 84.6428 50.6234C84.701 50.6421 84.7545 50.673 84.7998 50.7141C84.845 50.7551 84.881 50.8054 84.9052 50.8615C85.8576 52.4231 87.9854 56.1811 87.2047 57.2707C87.0033 57.506 86.749 57.6902 86.4626 57.808C86.1762 57.9258 85.8659 57.974 85.5573 57.9485Z" fill="#0C2232" />
    <path d="M84.1159 44.6583C86.0893 46.3743 85.36 49.892 85.257 52.1743C85.1026 55.3832 84.8795 58.5921 84.5878 61.801C84.399 63.8258 79.1224 63.6714 78.2129 63.0279L78.7363 71.1016L67.814 66.4255L68.5262 57.1506C68.5262 57.1506 72.0096 57.3051 74.2318 53.2382C76.454 49.1713 76.6084 42.7878 76.6084 42.7878C76.6084 42.7878 82.194 42.9594 84.1159 44.6583Z" fill="white" />
    <path d="M78.7363 71.5306C78.6798 71.5434 78.6212 71.5434 78.5647 71.5306L67.651 66.8545C67.5686 66.8182 67.499 66.7578 67.4515 66.6812C67.4041 66.6047 67.3809 66.5155 67.3851 66.4255L68.0972 57.1506C68.106 57.0399 68.1574 56.9368 68.2406 56.8632C68.3238 56.7896 68.4323 56.7511 68.5433 56.7559C68.672 56.7559 71.7951 56.8332 73.8543 53.0666C75.9993 49.137 76.1795 42.8736 76.1795 42.7707C76.1804 42.7138 76.1931 42.6578 76.2167 42.6062C76.2403 42.5545 76.2744 42.5082 76.3168 42.4704C76.3565 42.4297 76.4049 42.3986 76.4584 42.3793C76.5119 42.3599 76.5691 42.353 76.6256 42.3588C76.8573 42.3588 82.3828 42.5562 84.399 44.3408C86.2008 45.9281 85.9606 48.7165 85.7718 50.9645C85.7718 51.3935 85.7032 51.8225 85.686 52.1914C85.5316 55.3917 85.3085 58.6349 85.0168 61.8353C84.9647 62.1762 84.8193 62.4961 84.5967 62.7595C84.3741 63.023 84.083 63.2198 83.7556 63.3282C82.1303 63.9173 80.3695 64.0246 78.6848 63.637L79.1825 71.0501C79.1859 71.1078 79.1777 71.1657 79.1582 71.2202C79.1388 71.2747 79.1085 71.3246 79.0692 71.3671C79.03 71.4096 78.9825 71.4437 78.9297 71.4674C78.8769 71.491 78.8199 71.5038 78.762 71.5048L78.7363 71.5306ZM68.2688 66.151L78.2558 70.4409L77.7925 63.0622C77.7833 62.9812 77.7989 62.8992 77.8372 62.8273C77.8754 62.7553 77.9347 62.6966 78.007 62.6589C78.0748 62.6153 78.1538 62.5921 78.2344 62.5921C78.315 62.5921 78.3939 62.6153 78.4617 62.6589C80.0739 63.1601 81.8053 63.1239 83.3952 62.556C83.8757 62.3415 84.1331 62.0669 84.1588 61.698C84.4591 58.5148 84.6822 55.2802 84.828 52.097C84.828 51.7024 84.8795 51.239 84.9138 50.8272C85.094 48.7766 85.3085 46.2284 83.8328 44.9242C82.3399 43.6029 78.333 43.2597 77.0203 43.2082C76.9431 44.744 76.5398 49.8748 74.6094 53.4183C72.6789 56.9619 69.9676 57.4509 68.9209 57.5367L68.2688 66.151Z" fill="#0C2232" />
    <path d="M100.873 88.4587C100.873 88.4587 87.9597 74.8167 82.8547 69.6859C78.11 64.9326 64.3135 60.6083 58.033 67.4208C58.033 67.4208 47.737 81.8264 45.7208 90.2005L51.7267 93.8984C50.412 103.822 49.6386 113.809 49.4101 123.817C60.8043 132.826 89.9331 118.24 89.9331 118.24L87.2991 97.6478L92.0094 102.367L100.873 88.4587Z" fill="#FFBC6F" />
    <path d="M84.605 59.3985C84.605 59.3985 82.031 60.8314 80.8298 58.2059L84.605 59.3985Z" fill="white" />
    <path d="M83.0692 60.2222C82.7785 60.2202 82.4896 60.1769 82.2112 60.0935C81.8104 59.9497 81.4448 59.7224 81.1386 59.4265C80.8324 59.1307 80.5926 58.7731 80.4351 58.3775C80.4115 58.3263 80.3981 58.2708 80.3959 58.2144C80.3937 58.158 80.4026 58.1017 80.4221 58.0487C80.4416 57.9957 80.4714 57.9471 80.5097 57.9056C80.548 57.8642 80.5941 57.8306 80.6453 57.807C80.6966 57.7833 80.752 57.77 80.8085 57.7677C80.8649 57.7655 80.9212 57.7744 80.9742 57.7939C81.0271 57.8134 81.0758 57.8432 81.1172 57.8815C81.1587 57.9198 81.1922 57.9659 81.2159 58.0172C81.3268 58.3002 81.4955 58.557 81.7112 58.7712C81.9269 58.9854 82.1848 59.1523 82.4686 59.2613C83.118 59.4179 83.8024 59.3293 84.3905 59.0124C84.491 58.9598 84.608 58.9483 84.7169 58.9803C84.8257 59.0123 84.9179 59.0854 84.9739 59.184C85.0024 59.2321 85.0209 59.2855 85.0281 59.341C85.0353 59.3964 85.0312 59.4527 85.0159 59.5065C85.0007 59.5603 84.9746 59.6104 84.9394 59.6538C84.9041 59.6972 84.8604 59.7329 84.8109 59.7589C84.2761 60.0514 83.6786 60.2103 83.0692 60.2222Z" fill="#0C2232" />
    <path d="M78.3245 52.9035C78.2652 52.096 77.983 51.3208 77.5094 50.6642C77.2209 50.1091 76.8474 49.6025 76.4026 49.1627C76.1797 48.9405 75.9099 48.7712 75.6129 48.6673C75.3159 48.5633 74.9993 48.5274 74.6866 48.5621C74.4147 48.6209 74.1582 48.736 73.9336 48.9001C73.709 49.0641 73.5212 49.2734 73.3824 49.5145C73.1166 50.0014 72.9586 50.5398 72.9191 51.0932C72.8233 52.298 73.0446 53.5069 73.5609 54.5997C74.0772 55.6925 74.8705 56.6311 75.862 57.3222L75.6904 57.1248" fill="white" />
    <path d="M75.8621 57.7598C75.7758 57.7604 75.6916 57.7333 75.6218 57.6826C74.5657 56.9472 73.7207 55.9479 73.1712 54.7842C72.6217 53.6205 72.3869 52.3331 72.4902 51.0503C72.5367 50.4468 72.7154 49.861 73.0135 49.3343C73.1789 49.039 73.4066 48.7833 73.6807 48.5847C73.9547 48.3862 74.2687 48.2497 74.6008 48.1846C74.9776 48.1368 75.3603 48.1753 75.72 48.2972C76.0798 48.4191 76.407 48.6211 76.6772 48.8881C77.1502 49.3476 77.5495 49.8772 77.8612 50.4583C78.3752 51.1842 78.6727 52.041 78.7192 52.9293C78.7192 53.0431 78.674 53.1522 78.5935 53.2326C78.5131 53.3131 78.404 53.3583 78.2902 53.3583C78.1764 53.3583 78.0673 53.3131 77.9869 53.2326C77.9064 53.1522 77.8612 53.0431 77.8612 52.9293C77.8026 52.1999 77.5411 51.5015 77.1062 50.913C76.8384 50.3979 76.4942 49.9264 76.0852 49.5145C75.9082 49.3395 75.6953 49.2052 75.4612 49.1207C75.2271 49.0363 74.9774 49.0038 74.7295 49.0254C74.5188 49.0714 74.3203 49.1618 74.1472 49.2905C73.9741 49.4192 73.8304 49.5833 73.7257 49.7719C73.4899 50.1996 73.3522 50.6743 73.3224 51.1618C73.2394 52.2158 73.4139 53.2742 73.831 54.2458C74.248 55.2173 74.895 56.0729 75.7162 56.7388C75.8256 56.7501 75.9266 56.8022 75.9994 56.8846L76.171 57.082C76.2397 57.1602 76.2777 57.2609 76.2777 57.3651C76.2777 57.4693 76.2397 57.5699 76.171 57.6482C76.1293 57.6862 76.0806 57.7156 76.0276 57.7347C75.9746 57.7539 75.9184 57.7624 75.8621 57.7598Z" fill="#0C2232" />
    <path d="M78.2129 63.0278C76.6644 62.4611 75.3121 61.4602 74.3176 60.145C74.3176 60.145 74.3176 65.0441 78.4446 66.6228L78.2129 63.0278Z" fill="#0C2232" />
    <path d="M78.4446 67.0518H78.2902C73.9316 65.3873 73.8887 60.1879 73.8887 60.1879C73.8872 60.0947 73.9168 60.0037 73.9727 59.9292C74.0286 59.8546 74.1077 59.8008 74.1975 59.7761C74.2873 59.7511 74.3827 59.756 74.4693 59.7901C74.556 59.8241 74.6293 59.8855 74.678 59.9648C75.6184 61.1755 76.8828 62.0948 78.3245 62.616C78.4034 62.6444 78.4723 62.6952 78.5226 62.7623C78.5729 62.8294 78.6025 62.9098 78.6076 62.9935L78.8393 66.5971C78.8427 66.6679 78.8289 66.7385 78.799 66.8027C78.7691 66.867 78.724 66.923 78.6677 66.966C78.6037 67.0165 78.5259 67.0464 78.4446 67.0518ZM74.8925 61.5092C75.0456 62.4249 75.4017 63.2947 75.9346 64.0548C76.4676 64.815 77.164 65.4462 77.9727 65.9021L77.8097 63.3281C76.7393 62.8953 75.7522 62.2799 74.8925 61.5092Z" fill="#0C2232" />
    <path d="M87.6595 99.0978C87.5435 99.0975 87.4324 99.0513 87.3506 98.9691C84.0753 95.5861 80.9849 92.0288 78.0929 88.3129C78.0268 88.2211 77.9988 88.1073 78.0148 87.9953C78.0308 87.8833 78.0895 87.7819 78.1787 87.7123C78.2697 87.644 78.3841 87.6147 78.4967 87.6308C78.6094 87.6469 78.711 87.707 78.7793 87.7981C81.6494 91.4874 84.7169 95.019 87.9684 98.3771C88.0083 98.4163 88.04 98.463 88.0617 98.5145C88.0834 98.5661 88.0945 98.6215 88.0945 98.6774C88.0945 98.7333 88.0834 98.7887 88.0617 98.8403C88.04 98.8918 88.0083 98.9386 87.9684 98.9777C87.9283 99.0185 87.8801 99.0503 87.8268 99.071C87.7736 99.0917 87.7165 99.1008 87.6595 99.0978Z" fill="#0C2232" />
    <path d="M67.5567 142.95C67.4565 142.954 67.3583 142.921 67.2821 142.855C67.059 142.675 61.954 138.325 61.9282 131.461C61.9282 131.349 61.9722 131.241 62.0508 131.161C62.1294 131.081 62.2364 131.035 62.3486 131.032C62.4046 131.032 62.46 131.043 62.5115 131.065C62.5631 131.087 62.6098 131.119 62.649 131.159C62.6881 131.198 62.7189 131.246 62.7395 131.298C62.7602 131.35 62.7702 131.405 62.7691 131.461C62.7691 137.922 67.7712 142.161 67.8226 142.195C67.909 142.27 67.9628 142.375 67.9724 142.489C67.982 142.603 67.9467 142.716 67.8741 142.804C67.8337 142.848 67.7848 142.884 67.7302 142.909C67.6757 142.934 67.6167 142.948 67.5567 142.95Z" fill="white" />
    <path d="M83.2516 48.8802C83.3816 48.2587 83.2877 47.7132 83.0418 47.6618C82.796 47.6104 82.4914 48.0726 82.3614 48.6941C82.2314 49.3156 82.3254 49.8611 82.5712 49.9125C82.817 49.9639 83.1217 49.5018 83.2516 48.8802Z" fill="#0C2232" />
    <path d="M51.6238 91.3673H51.5551C51.4433 91.3464 51.3441 91.2827 51.2784 91.1898C51.2127 91.0969 51.1858 90.9821 51.2034 90.8697C51.2977 90.2434 53.7087 75.4687 56.42 70.5353C56.4468 70.4855 56.4834 70.4416 56.5275 70.4063C56.5717 70.3709 56.6225 70.3449 56.677 70.3297C56.7315 70.3144 56.7885 70.3104 56.8445 70.3177C56.9006 70.325 56.9547 70.3436 57.0034 70.3723C57.0529 70.3982 57.0966 70.434 57.1319 70.4774C57.1671 70.5208 57.1932 70.5709 57.2084 70.6247C57.2237 70.6784 57.2278 70.7348 57.2206 70.7902C57.2134 70.8456 57.1949 70.899 57.1664 70.9471C54.5324 75.7519 52.0699 90.8525 52.0185 91.007C52.0047 91.1035 51.9577 91.1922 51.8857 91.2579C51.8138 91.3237 51.7211 91.3623 51.6238 91.3673Z" fill="#0C2232" />
    <path d="M213.167 157.707C213.275 156.086 212.931 154.467 212.171 153.031C211.545 151.993 210.584 151.169 210.069 150.071C209.211 148.166 209.803 145.927 209.597 143.842C209.411 142.093 208.64 140.457 207.409 139.2C206.32 138.102 204.913 137.339 203.866 136.189C202.15 134.301 201.669 131.65 200.7 129.325C199.309 125.993 196.908 123.182 193.836 121.286C195.698 125.035 191.451 129.805 193.381 133.52C193.99 134.705 195.149 135.563 195.603 136.815C196.676 139.827 193.081 143.096 194.231 146.09C194.805 147.583 196.41 148.45 197.156 149.865C198.16 151.77 197.371 154.095 197.448 156.249C197.56 159.226 199.37 161.886 201.524 163.971C202.862 165.249 204.355 166.364 205.814 167.523C207.53 168.913 208.276 170.363 209.795 168.14C211.911 165.065 213.082 161.439 213.167 157.707Z" fill="#0C2232" />
    <path d="M215.097 159.423C214.539 157.124 214.145 154.619 215.097 152.448C216.152 149.994 218.804 148.252 219.112 145.584C219.318 143.868 218.435 142.075 218.778 140.359C219.121 138.643 220.494 137.467 221.686 136.197C224.353 133.266 225.939 129.513 226.182 125.558C227.971 127.681 229.419 130.069 230.472 132.637C231.382 135.254 231.399 138.325 229.846 140.625C229.403 141.159 229.039 141.754 228.765 142.392C228.241 144.108 229.692 145.67 230.438 147.283C230.882 148.201 231.068 149.222 230.976 150.238C230.884 151.254 230.517 152.225 229.915 153.048C228.387 154.945 225.462 155.682 224.707 157.99C224.522 158.853 224.435 159.734 224.449 160.616C224.287 162.144 223.673 163.588 222.686 164.765C221.699 165.942 220.383 166.797 218.907 167.222C217.113 167.66 217.148 166.948 216.822 165.429C216.367 163.404 215.603 161.44 215.097 159.423Z" fill="#0C2232" />
    <path d="M209.366 142.855C208.087 138.437 207.581 133.812 206.234 129.411C205.087 125.972 203.688 122.622 202.047 119.389L207.53 121.697C209.288 122.444 211.193 123.319 212.025 125.035C213.467 128.029 210.876 131.899 212.394 134.825C213.051 135.785 213.777 136.697 214.565 137.553C216.178 139.818 215.929 142.941 215.046 145.575C214.659 146.708 213.004 152.576 211.519 150.946C210.919 150.294 210.867 147.866 210.618 146.974C210.232 145.592 209.769 144.237 209.366 142.855Z" fill="#0C2232" />
    <path d="M212.411 201.602C211.313 194.369 207.881 168.861 207.881 168.638L208.739 168.527C208.739 168.784 212.171 194.266 213.295 201.474L212.411 201.602Z" fill="#0C2232" />
    <path d="M213.604 208.432H212.746C212.815 199.852 216.384 167.077 218.443 164.829L219.078 165.412C217.705 166.896 213.69 196.677 213.604 208.432Z" fill="#0C2232" />
    <path d="M215.466 206.793H214.608C215.466 188.286 211.502 149.419 211.459 149.033L212.317 148.939C212.36 149.299 216.29 188.226 215.466 206.793Z" fill="#0C2232" />
    <path d="M202.965 180.873H223.385L221.961 204.039C221.712 208.054 218.735 211.169 215.149 211.169H211.202C207.615 211.169 204.647 208.054 204.398 204.039L202.965 180.873Z" fill="white" />
    <path d="M215.148 211.649H211.202C207.401 211.649 204.218 208.337 203.952 204.108L202.527 180.942C202.523 180.881 202.53 180.821 202.55 180.764C202.57 180.707 202.602 180.654 202.643 180.61C202.684 180.566 202.734 180.53 202.789 180.506C202.845 180.482 202.905 180.47 202.965 180.47H223.385C223.508 180.472 223.624 180.521 223.711 180.607C223.792 180.7 223.835 180.819 223.831 180.942L222.399 204.108C222.141 208.329 218.958 211.649 215.148 211.649ZM203.437 181.336L204.835 204.039C205.067 207.805 207.864 210.748 211.202 210.748H215.148C218.486 210.748 221.283 207.805 221.515 204.039L222.913 181.319L203.437 181.336Z" fill="#0C2232" />
    <path d="M223.462 100.625H181.489L190.953 30.0552H232.926L223.462 100.625Z" fill="white" />
    <path d="M223.462 101.08H181.489C181.429 101.08 181.369 101.067 181.315 101.042C181.26 101.017 181.211 100.98 181.172 100.934C181.13 100.89 181.099 100.837 181.081 100.779C181.064 100.721 181.059 100.659 181.069 100.599L190.507 30.0209C190.523 29.9186 190.575 29.8253 190.654 29.7578C190.732 29.6902 190.832 29.6527 190.936 29.652H232.909C232.97 29.6525 233.031 29.6658 233.087 29.6909C233.143 29.716 233.194 29.7524 233.235 29.7978C233.312 29.8947 233.349 30.0176 233.338 30.141L223.9 100.711C223.884 100.815 223.83 100.909 223.75 100.977C223.67 101.045 223.568 101.081 223.462 101.08ZM181.979 100.222H223.085L232.437 30.51H191.331L181.979 100.222Z" fill="#0C2232" />
    <path d="M216.367 90.149H192.257C191.857 90.1584 191.46 90.0793 191.095 89.9173C190.729 89.7552 190.403 89.5142 190.142 89.2116C189.88 88.909 189.689 88.5522 189.581 88.1669C189.474 87.7816 189.453 87.3773 189.52 86.983L189.846 84.5205C189.982 83.6563 190.416 82.8668 191.072 82.2886C191.729 81.7104 192.567 81.38 193.441 81.3545H217.542C217.943 81.3435 218.34 81.4216 218.707 81.5831C219.073 81.7447 219.399 81.9857 219.661 82.2887C219.923 82.5916 220.115 82.9491 220.221 83.3351C220.328 83.7211 220.348 84.126 220.279 84.5205L219.953 86.983C219.821 87.8472 219.389 88.6375 218.734 89.2161C218.079 89.7947 217.241 90.1249 216.367 90.149Z" fill="#FFBC6F" />
    <path d="M218.1 77.1847H193.999C193.599 77.1958 193.201 77.1177 192.834 76.9561C192.468 76.7946 192.142 76.5536 191.88 76.2506C191.618 75.9476 191.427 75.5902 191.32 75.2042C191.213 74.8182 191.193 74.4133 191.262 74.0187L191.588 71.5563C191.721 70.6906 192.153 69.8992 192.811 69.3204C193.468 68.7417 194.308 68.4124 195.183 68.3903H219.284C219.684 68.3808 220.081 68.4599 220.447 68.622C220.812 68.784 221.138 69.025 221.399 69.3276C221.661 69.6303 221.852 69.987 221.96 70.3723C222.067 70.7576 222.088 71.1619 222.021 71.5563L221.695 74.0187C221.559 74.8829 221.126 75.6725 220.469 76.2507C219.812 76.8289 218.974 77.1593 218.1 77.1847Z" fill="white" />
    <path d="M218.1 77.6137H193.999C193.542 77.6219 193.088 77.531 192.669 77.3473C192.249 77.1637 191.875 76.8917 191.571 76.5498C191.27 76.1989 191.049 75.7874 190.921 75.3432C190.794 74.8991 190.764 74.4327 190.833 73.9758L191.168 71.5134C191.318 70.5476 191.802 69.6649 192.535 69.0191C193.269 68.3732 194.206 68.005 195.183 67.9785H219.284C219.742 67.9703 220.195 68.0612 220.614 68.2448C221.034 68.4285 221.408 68.7005 221.712 69.0424C222.012 69.3939 222.233 69.8054 222.36 70.2494C222.487 70.6934 222.518 71.1595 222.45 71.6164L222.115 74.0788C221.965 75.0446 221.481 75.9272 220.748 76.5731C220.014 77.219 219.077 77.5872 218.1 77.6137ZM195.183 68.8193C194.412 68.8403 193.674 69.1308 193.095 69.6403C192.517 70.1498 192.135 70.846 192.017 71.6078L191.682 74.0702C191.63 74.4086 191.65 74.7544 191.741 75.0844C191.833 75.4144 191.994 75.721 192.214 75.9835C192.439 76.233 192.714 76.4311 193.022 76.5644C193.33 76.6976 193.663 76.7629 193.999 76.7557H218.1C218.872 76.7344 219.612 76.4426 220.19 75.9314C220.769 75.4202 221.15 74.722 221.266 73.9587L221.601 71.4962C221.654 71.1572 221.633 70.8106 221.54 70.4803C221.447 70.15 221.283 69.8439 221.06 69.5829C220.836 69.3357 220.562 69.1395 220.255 69.0078C219.949 68.876 219.618 68.8117 219.284 68.8193H195.183Z" fill="#D1D3D4" />
    <path d="M219.842 64.1861H195.741C195.34 64.1969 194.942 64.1188 194.575 63.9573C194.209 63.7958 193.882 63.555 193.62 63.2522C193.357 62.9494 193.165 62.5922 193.057 62.2063C192.949 61.8203 192.928 61.4152 192.995 61.0202L193.33 58.5577C193.461 57.6928 193.892 56.9015 194.547 56.3226C195.203 55.7437 196.042 55.4142 196.916 55.3917H221.017C221.418 55.381 221.816 55.4591 222.183 55.6206C222.549 55.7821 222.876 56.0229 223.138 56.3257C223.401 56.6285 223.593 56.9857 223.701 57.3716C223.809 57.7576 223.83 58.1627 223.763 58.5577L223.428 61.0202C223.297 61.8851 222.866 62.6764 222.211 63.2553C221.555 63.8342 220.716 64.1637 219.842 64.1861Z" fill="white" />
    <path d="M219.842 64.6409H195.741C195.279 64.6525 194.82 64.5616 194.397 64.3748C193.974 64.1881 193.598 63.91 193.295 63.5606C192.992 63.2112 192.771 62.7991 192.646 62.354C192.522 61.9088 192.497 61.4416 192.575 60.9858L192.901 58.5234C193.053 57.5583 193.537 56.6766 194.27 56.031C195.004 55.3855 195.94 55.0167 196.916 54.9885H221.017C221.479 54.9769 221.938 55.0677 222.361 55.2545C222.784 55.4413 223.16 55.7194 223.463 56.0688C223.765 56.4182 223.987 56.8302 224.112 57.2754C224.236 57.7206 224.261 58.1878 224.183 58.6435L223.857 61.106C223.705 62.0711 223.221 62.9528 222.488 63.5983C221.754 64.2439 220.818 64.6127 219.842 64.6409ZM196.916 55.8465C196.145 55.8695 195.406 56.1618 194.828 56.6727C194.249 57.1836 193.868 57.8809 193.75 58.6435L193.424 61.106C193.372 61.443 193.392 61.7873 193.484 62.1158C193.576 62.4443 193.737 62.7494 193.956 63.0107C194.181 63.2602 194.456 63.4583 194.764 63.5915C195.072 63.7248 195.405 63.7901 195.741 63.7829H219.842C220.613 63.7599 221.352 63.4676 221.93 62.9566C222.509 62.4457 222.89 61.7485 223.008 60.9858L223.325 58.5234C223.386 58.1893 223.37 57.8459 223.281 57.5184C223.191 57.1909 223.029 56.8877 222.807 56.6309C222.585 56.3742 222.308 56.1705 221.997 56.0347C221.686 55.899 221.348 55.8346 221.009 55.8465H196.916Z" fill="#D1D3D4" />
    <path d="M221.609 51.2391H197.5C197.1 51.2485 196.703 51.1694 196.337 51.0074C195.971 50.8453 195.646 50.6043 195.384 50.3017C195.123 49.9991 194.931 49.6423 194.824 49.257C194.716 48.8717 194.695 48.4674 194.763 48.0731L195.089 45.6106C195.223 44.7457 195.656 43.9552 196.313 43.3767C196.97 42.7982 197.809 42.4684 198.684 42.4446H222.785C223.185 42.4336 223.583 42.5117 223.949 42.6732C224.316 42.8348 224.642 43.0758 224.904 43.3787C225.166 43.6817 225.357 44.0392 225.464 44.4251C225.571 44.8111 225.59 45.2161 225.522 45.6106L225.196 48.0731C225.063 48.9373 224.632 49.7276 223.976 50.3062C223.321 50.8848 222.483 51.215 221.609 51.2391Z" fill="white" />
    <path d="M221.609 51.668H197.5C197.032 51.685 196.567 51.5984 196.136 51.4145C195.706 51.2306 195.322 50.9538 195.011 50.6041C194.712 50.2524 194.492 49.8407 194.364 49.3968C194.237 48.9529 194.206 48.487 194.274 48.0302L194.608 45.5677C194.757 44.6003 195.24 43.7157 195.974 43.0681C196.707 42.4205 197.645 42.0511 198.624 42.0242H222.725C223.182 42.0149 223.636 42.1053 224.056 42.289C224.475 42.4727 224.849 42.7454 225.153 43.0881C225.453 43.439 225.675 43.8505 225.802 44.2947C225.929 44.7389 225.96 45.2052 225.891 45.6621L225.565 48.1245C225.417 49.0814 224.942 49.9575 224.221 50.6036C223.499 51.2497 222.577 51.6258 221.609 51.668ZM198.658 42.8736C197.887 42.8966 197.148 43.189 196.569 43.6999C195.991 44.2108 195.61 44.9081 195.492 45.6707L195.166 48.1331C195.106 48.4665 195.121 48.8091 195.21 49.136C195.299 49.4628 195.46 49.7656 195.681 50.0221C195.903 50.2787 196.178 50.4826 196.488 50.619C196.799 50.7553 197.135 50.8206 197.474 50.8101H221.609C222.378 50.7871 223.115 50.4957 223.692 49.9863C224.268 49.477 224.649 48.7819 224.767 48.0216L225.101 45.5591C225.154 45.2207 225.134 44.8749 225.042 44.5449C224.95 44.2149 224.789 43.9084 224.569 43.6458C224.345 43.3964 224.069 43.1983 223.761 43.065C223.453 42.9317 223.12 42.8665 222.785 42.8736H198.658Z" fill="#D1D3D4" />
    <path d="M220.605 37.0993H202.124C202.01 37.0993 201.901 37.0541 201.821 36.9737C201.74 36.8932 201.695 36.7841 201.695 36.6703C201.697 36.5572 201.743 36.4494 201.823 36.3694C201.903 36.2894 202.011 36.2435 202.124 36.2413H220.605C220.719 36.2413 220.828 36.2865 220.909 36.367C220.989 36.4474 221.034 36.5566 221.034 36.6703C221.034 36.7267 221.023 36.7825 221.002 36.8345C220.98 36.8865 220.949 36.9338 220.909 36.9737C220.869 37.0135 220.822 37.0451 220.769 37.0667C220.717 37.0882 220.662 37.0993 220.605 37.0993Z" fill="#D1D3D4" />
</svg>
    